<svg width="457" height="402" viewBox="0 0 457 402" fill="none" xmlns="http://www.w3.org/2000/svg">
<path d="M383.84 200.526L399.002 173.394L376.202 152.418L382.244 121.98L354.086 108.984L350.438 78.09L319.544 74.442L306.548 46.284L276.11 52.326L255.134 29.526L228.002 44.688L200.87 29.526L179.894 52.326L149.456 46.284L136.46 74.442L105.566 78.09L101.918 108.984L73.7599 121.98L79.802 152.418L57.002 173.394L72.164 200.526L57.002 227.658L79.802 248.634L73.7599 279.072L101.918 292.068L105.566 322.962L136.46 326.61L149.456 354.768L179.894 348.726L200.87 371.526L228.002 356.364L255.134 371.526L276.11 348.726L306.548 354.768L319.544 326.61L350.438 322.962L354.086 292.068L382.244 279.072L376.202 248.634L399.002 227.658L383.84 200.526Z" fill="#6CC7BE"/>
<path d="M246.926 343.14C248.522 341.772 249.206 339.948 248.864 338.238C248.294 335.844 245.786 333.792 241.91 332.652C235.526 330.828 227.66 331.968 223.898 335.16C222.302 336.528 221.618 338.352 221.96 340.062C222.53 342.456 225.038 344.508 228.914 345.648C230.966 346.218 233.246 346.56 235.412 346.56C239.972 346.446 244.418 345.306 246.926 343.14ZM239.972 338.694C239.744 337.782 238.946 336.984 237.692 336.642C237.92 336.642 238.148 336.642 238.376 336.414L238.718 336.186C238.832 336.072 239.174 336.072 239.516 336.186C239.516 336.3 239.516 336.528 239.516 336.642C239.63 336.984 239.858 337.326 240.2 337.44C240.77 337.668 241.226 338.01 241.454 338.238C241.682 338.352 241.796 338.466 242.138 338.58C242.024 338.808 242.024 338.922 242.024 339.15C242.024 339.378 242.024 339.492 241.796 339.72C241.568 340.062 241.568 340.404 241.682 340.746L241.34 340.632C241.112 340.518 240.77 340.632 240.542 340.746C239.972 340.974 239.402 341.316 238.718 341.43C238.376 341.544 238.148 341.658 238.034 342C237.92 342.114 237.92 342.342 237.92 342.456L237.464 342.57C237.236 342.57 237.008 342.57 236.894 342.57L236.78 342.342C236.666 342.228 236.552 342.114 236.438 342C237.578 341.886 238.604 341.544 239.402 340.86C239.858 340.29 240.2 339.492 239.972 338.694ZM230.852 339.606C231.08 340.518 231.878 341.316 233.132 341.658C232.904 341.658 232.676 341.658 232.448 341.886L232.106 342.114C231.992 342.114 231.65 342.228 231.308 342.114C231.308 342 231.308 341.772 231.308 341.658C231.194 341.316 230.966 340.974 230.624 340.86C230.054 340.632 229.598 340.29 229.37 340.062C229.256 339.948 229.142 339.948 229.142 339.834V338.466C229.256 338.238 229.256 337.896 229.142 337.668L229.484 337.782C229.712 337.896 230.054 337.782 230.282 337.668C230.852 337.44 231.422 337.098 232.106 336.984C232.448 336.87 232.676 336.756 232.79 336.414C232.904 336.3 232.904 336.072 232.904 335.958L233.36 335.844C233.588 335.844 233.816 335.844 233.93 335.844L234.044 336.072C234.158 336.186 234.272 336.3 234.5 336.414C233.36 336.528 232.22 336.87 231.536 337.554C230.966 338.01 230.738 338.808 230.852 339.606ZM304.154 327.522C304.61 327.522 305.066 327.408 305.408 327.294C306.32 327.066 307.004 326.496 307.118 325.698C307.232 325.128 307.004 324.444 306.548 323.988C305.636 323.19 303.926 323.076 302.9 323.418C301.988 323.646 301.304 324.216 301.19 325.014C301.076 325.584 301.304 326.268 301.76 326.724C302.444 327.408 303.356 327.522 304.154 327.522ZM294.464 328.89C295.034 329.46 295.946 329.688 296.858 329.688C297.314 329.688 297.77 329.574 298.112 329.46C299.024 329.232 299.708 328.662 299.822 327.864C299.936 327.294 299.708 326.61 299.252 326.154C298.34 325.356 296.63 325.242 295.604 325.584C294.692 325.812 294.008 326.382 293.894 327.18C293.666 327.864 293.894 328.434 294.464 328.89ZM253.652 332.88C254.108 333.792 255.362 334.02 256.274 333.906H256.502C256.616 334.02 256.844 334.134 256.958 334.248C256.958 334.476 256.958 334.59 256.958 334.818C257.072 335.388 257.642 335.844 258.326 336.072L258.896 336.186C259.808 336.414 260.948 336.3 261.632 335.844C262.202 335.958 262.772 335.958 263.342 335.958C263.798 336.528 264.596 336.642 265.394 336.642C265.508 336.642 265.736 336.642 265.85 336.642L266.42 336.528C267.218 336.414 267.788 336.072 268.13 335.502C268.244 335.388 268.244 335.274 268.358 335.046C268.7 334.932 269.042 334.818 269.384 334.59H269.612C270.41 334.818 271.55 334.704 272.348 334.02L272.69 333.792C273.146 333.45 273.374 332.88 273.26 332.31C273.146 331.968 273.032 331.626 272.69 331.398C273.26 331.17 273.602 330.828 273.83 330.486C274.058 330.03 274.058 329.574 273.83 329.118L273.716 328.776C273.26 327.864 272.006 327.636 271.094 327.75H270.866C270.752 327.636 270.524 327.522 270.41 327.408C270.41 327.18 270.41 327.066 270.41 326.838C270.296 326.268 269.726 325.812 269.042 325.584L268.472 325.47C267.56 325.242 266.42 325.356 265.736 325.812C265.166 325.698 264.596 325.698 264.026 325.698C263.456 325.014 262.316 324.9 261.518 325.014L260.948 325.128C260.15 325.242 259.58 325.584 259.238 326.154C259.124 326.268 259.124 326.382 259.01 326.61C258.668 326.724 258.326 326.838 257.984 327.066H257.756C256.958 326.838 255.818 326.952 255.02 327.636L254.678 327.864C254.222 328.206 253.994 328.776 254.108 329.346C254.222 329.688 254.336 330.03 254.678 330.258C254.108 330.486 253.766 330.828 253.538 331.17C253.31 331.626 253.31 332.082 253.538 332.538L253.652 332.88ZM271.436 332.424L271.094 333.45L271.436 332.424ZM266.534 328.32L266.876 328.092C266.99 327.978 267.332 327.978 267.674 328.092C267.674 328.206 267.674 328.434 267.674 328.548C267.788 328.89 268.016 329.232 268.358 329.346C268.928 329.574 269.384 329.916 269.612 330.144C269.84 330.258 269.954 330.372 270.296 330.486C270.182 330.714 270.182 330.828 270.182 331.056C270.182 331.284 270.182 331.398 269.954 331.626C269.726 331.968 269.726 332.31 269.84 332.652L269.498 332.538C269.27 332.424 268.928 332.538 268.7 332.652C268.13 332.88 267.56 333.222 266.876 333.336C266.534 333.45 266.306 333.564 266.192 333.906C266.078 334.02 266.078 334.248 266.078 334.362L265.622 334.476C265.394 334.476 265.166 334.476 265.052 334.476L264.938 334.248C264.824 334.134 264.71 334.02 264.482 333.906C265.622 333.792 266.762 333.45 267.446 332.766C268.13 332.196 268.472 331.398 268.244 330.6C268.016 329.688 267.218 328.89 265.964 328.548C266.078 328.434 266.306 328.434 266.534 328.32ZM264.938 330.6C265.394 330.714 265.622 330.942 265.85 331.056C265.28 331.626 263.57 331.854 262.202 331.512C261.746 331.398 261.518 331.17 261.29 331.056C261.86 330.486 263.57 330.258 264.938 330.6ZM257.072 331.056C257.072 330.828 257.072 330.714 257.3 330.486C257.528 330.144 257.528 329.802 257.414 329.46L257.756 329.574C257.984 329.688 258.326 329.574 258.554 329.46C259.124 329.232 259.694 328.89 260.378 328.776C260.72 328.662 260.948 328.548 261.062 328.206C261.176 328.092 261.176 327.864 261.176 327.75L261.632 327.636C261.86 327.636 262.088 327.636 262.202 327.636L262.316 327.864C262.43 327.978 262.544 328.092 262.772 328.206C261.632 328.32 260.492 328.662 259.808 329.346C259.124 329.916 258.782 330.714 259.01 331.512C259.238 332.424 260.036 333.222 261.29 333.564C261.062 333.564 260.834 333.564 260.606 333.792L260.264 334.02C260.15 334.134 259.808 334.134 259.466 334.02C259.466 333.906 259.466 333.678 259.466 333.564C259.352 333.222 259.124 332.88 258.782 332.766C258.212 332.538 257.756 332.196 257.528 331.968C257.3 331.854 257.186 331.74 256.958 331.626C256.958 331.512 257.072 331.284 257.072 331.056ZM311.564 325.47C312.02 325.47 312.476 325.356 312.818 325.242C313.73 325.014 314.414 324.444 314.528 323.646C314.642 323.076 314.414 322.392 313.958 321.936C313.046 321.138 311.336 321.024 310.31 321.366C309.398 321.594 308.714 322.164 308.6 322.962C308.486 323.532 308.714 324.216 309.17 324.672C309.74 325.242 310.652 325.47 311.564 325.47ZM349.754 49.704L236.552 16.986C231.878 15.618 224.24 15.618 219.452 16.986L106.25 49.704C101.234 51.186 97.2439 56.544 97.2439 61.674V149.112C97.2439 149.682 97.6999 150.138 98.1559 150.252C99.6379 153.786 102.716 156.75 106.25 157.776L219.452 190.494C221.846 191.178 224.924 191.52 228.002 191.52C231.08 191.52 234.158 191.178 236.552 190.494L349.754 157.776C353.288 156.75 356.366 153.672 357.848 150.252C358.418 150.138 358.76 149.682 358.76 149.112V61.674C358.874 56.544 354.77 51.072 349.754 49.704ZM356.594 130.302C356.594 134.52 353.174 138.966 349.184 140.106L235.982 172.824C231.65 174.078 224.468 174.078 220.136 172.824L106.82 140.106C102.83 138.966 99.4099 134.406 99.4099 130.302V61.674C99.4099 57.456 102.83 53.01 106.82 51.87L220.022 19.152C222.188 18.582 225.038 18.24 227.888 18.24C230.738 18.24 233.702 18.582 235.754 19.152L348.956 51.87C352.946 53.01 356.366 57.57 356.366 61.674V130.302H356.594ZM273.374 66.462H182.63C169.292 66.462 158.804 71.934 158.804 78.888C158.804 85.728 168.722 91.086 181.49 91.314C182.516 101.916 196.994 110.694 216.374 113.202C209.078 115.254 204.176 119.358 204.176 124.146C204.176 124.83 204.632 125.286 205.316 125.286H250.688C251.372 125.286 251.828 124.83 251.828 124.146C251.828 119.358 246.926 115.368 239.63 113.202C256.502 111.036 269.726 104.196 273.488 95.076C274.058 93.822 274.286 92.454 274.4 91.2C287.282 90.858 297.086 85.5 297.086 78.774C297.2 71.934 286.712 66.462 273.374 66.462ZM181.49 83.448C176.132 83.22 172.484 80.94 172.484 79.002C172.484 77.064 176.132 74.784 181.49 74.556V83.448ZM282.95 80.484C281.696 81.966 278.846 83.106 275.54 83.448C275.198 83.448 274.856 83.562 274.514 83.562V74.556C274.856 74.556 275.198 74.556 275.54 74.67C278.846 75.012 281.696 76.152 282.95 77.634C283.406 78.09 283.52 78.66 283.52 79.116C283.52 79.572 283.292 79.914 282.95 80.484ZM171.914 332.652C170.09 332.082 167.81 332.424 166.67 333.45C165.986 334.02 165.758 334.704 165.872 335.502C166.1 336.414 166.898 337.098 168.152 337.554C168.722 337.782 169.406 337.782 169.976 337.782C171.344 337.782 172.598 337.44 173.396 336.756C174.08 336.186 174.308 335.502 174.194 334.704C174.08 333.678 173.282 332.994 171.914 332.652ZM168.836 335.274C168.608 335.16 168.38 335.16 168.266 335.046C168.836 334.704 170.204 334.476 171.344 334.818C171.572 334.932 171.8 334.932 171.914 335.046C171.344 335.388 169.976 335.616 168.836 335.274ZM316.466 322.62C317.036 323.19 317.948 323.418 318.86 323.418C319.316 323.418 319.772 323.304 320.114 323.19C321.026 322.962 321.71 322.392 321.824 321.594C321.938 321.024 321.71 320.34 321.254 319.884C320.342 319.086 318.632 318.972 317.606 319.314C316.694 319.542 316.01 320.112 315.896 320.91C315.782 321.48 316.01 322.05 316.466 322.62ZM317.606 259.92C317.948 260.034 318.404 260.148 318.86 260.148C319.772 260.148 320.684 259.92 321.254 259.35C321.824 258.894 322.052 258.324 321.824 257.64C321.71 256.956 321.026 256.386 320.114 256.044C318.974 255.702 317.378 255.816 316.466 256.614C315.896 257.07 315.668 257.64 315.896 258.324C316.01 259.008 316.694 259.578 317.606 259.92ZM265.736 259.464C266.534 260.832 268.472 261.516 270.41 261.516C270.752 261.516 271.208 261.516 271.55 261.402C273.26 261.174 274.628 260.49 275.198 259.35C275.54 258.666 275.54 257.982 275.198 257.298C274.286 255.702 271.55 255.132 269.384 255.36C267.674 255.588 266.306 256.272 265.736 257.412C265.394 258.096 265.394 258.78 265.736 259.464ZM310.31 257.754C310.652 257.868 311.108 257.982 311.564 257.982C312.476 257.982 313.388 257.754 313.958 257.184C314.528 256.728 314.756 256.158 314.528 255.474C314.414 254.79 313.73 254.22 312.818 253.878C311.678 253.536 310.082 253.65 309.17 254.448C308.6 254.904 308.372 255.474 308.6 256.158C308.714 256.956 309.284 257.526 310.31 257.754ZM277.25 318.516C277.25 318.516 277.364 318.516 277.25 318.516C278.048 319.884 279.986 320.568 281.924 320.568C282.266 320.568 282.722 320.568 283.064 320.454C284.774 320.226 286.142 319.542 286.712 318.402C287.054 317.718 287.054 317.034 286.712 316.35C285.8 314.754 283.064 314.184 280.898 314.526C279.188 314.754 277.82 315.438 277.25 316.578C276.908 317.148 276.908 317.946 277.25 318.516ZM231.65 249.888C231.65 249.888 231.764 249.888 231.65 249.888C232.448 251.256 234.386 251.94 236.324 251.94C236.666 251.94 237.122 251.94 237.464 251.826C239.174 251.598 240.542 250.914 241.112 249.774C241.454 249.09 241.454 248.406 241.112 247.722C240.2 246.126 237.464 245.556 235.298 245.784C233.588 246.012 232.22 246.696 231.65 247.836C231.308 248.52 231.308 249.204 231.65 249.888ZM302.9 255.702C303.242 255.816 303.698 255.93 304.154 255.93C305.066 255.93 305.978 255.702 306.548 255.132C307.118 254.676 307.346 254.106 307.118 253.422C307.004 252.738 306.32 252.168 305.408 251.826C304.268 251.484 302.672 251.598 301.76 252.396C301.19 252.852 300.962 253.422 301.19 254.106C301.304 254.79 301.988 255.36 302.9 255.702ZM303.242 254.106L302.444 253.194L303.242 254.106ZM312.362 286.14C312.362 285.342 312.02 284.658 311.336 283.974C310.082 282.72 307.574 282.036 304.952 282.15L264.824 284.316C261.974 284.43 259.922 285.798 259.922 287.508V291.612C259.922 291.84 259.922 291.954 260.036 292.068C260.378 293.55 262.202 294.69 264.824 294.804L304.952 296.97C305.18 296.97 305.408 296.97 305.636 296.97C308.03 296.97 310.082 296.286 311.336 295.146C312.02 294.576 312.362 293.778 312.362 292.98V286.14ZM310.082 293.094C310.082 293.322 309.854 293.436 309.854 293.55C309.17 294.234 307.46 294.804 305.18 294.69L265.052 292.524C263.798 292.41 263 292.068 262.658 291.84C263 291.612 263.798 291.156 265.052 291.156L305.18 288.99C307.46 288.876 309.17 289.56 309.854 290.13C309.968 290.244 310.082 290.472 310.082 290.586V293.094ZM310.082 287.736C308.714 287.052 306.89 286.71 305.066 286.824L264.938 288.99C263.912 288.99 263.114 289.218 262.316 289.56V287.622C262.43 287.394 263.228 286.71 265.052 286.596L305.18 284.43C305.408 284.43 305.636 284.43 305.864 284.43C305.978 284.43 306.092 284.43 306.206 284.43C306.32 284.43 306.548 284.43 306.662 284.43C306.776 284.43 306.89 284.43 306.89 284.43C307.004 284.43 307.118 284.43 307.346 284.544C307.46 284.544 307.46 284.544 307.574 284.544C307.688 284.544 307.802 284.658 307.916 284.658C308.03 284.658 308.03 284.658 308.144 284.772C308.258 284.772 308.372 284.886 308.486 284.886C308.6 284.886 308.6 284.886 308.714 285C308.828 285 308.942 285.114 309.056 285.114C309.056 285.114 309.17 285.114 309.17 285.228C309.284 285.228 309.398 285.342 309.398 285.342C309.398 285.342 309.512 285.342 309.512 285.456C309.626 285.57 309.74 285.57 309.854 285.684C309.968 285.798 310.082 286.026 310.082 286.14V287.736ZM328.094 280.326C332.654 280.326 336.188 278.388 336.188 275.766C336.188 273.144 332.768 271.206 328.094 271.206C323.534 271.206 320 273.144 320 275.766C320 278.388 323.534 280.326 328.094 280.326ZM328.094 273.372C331.628 273.372 333.908 274.74 333.908 275.652C333.908 275.994 333.566 276.45 332.996 276.792L326.27 273.486C326.84 273.486 327.524 273.372 328.094 273.372ZM323.306 274.512L330.032 277.818C329.462 277.932 328.892 277.932 328.208 277.932C324.674 277.932 322.394 276.564 322.394 275.652C322.394 275.424 322.622 274.968 323.306 274.512ZM341.66 253.65L306.434 243.504L290.018 238.716L283.748 236.892L267.332 232.104L232.106 221.958C229.826 221.274 226.292 221.274 224.012 221.958L114.344 253.65C112.178 254.334 109.784 256.044 109.784 257.982V321.252C109.784 323.19 112.064 324.9 114.344 325.584L149.228 335.616L165.074 340.176L173.282 342.57L180.92 344.736L223.898 357.162C225.038 357.504 226.52 357.618 227.888 357.618C229.256 357.618 230.738 357.504 231.878 357.162L341.546 325.47C342.344 325.242 343.256 324.786 343.94 324.33C345.194 323.532 346.106 322.392 346.106 321.138V257.868C346.22 255.93 343.94 254.22 341.66 253.65ZM295.604 244.986C296.858 245.328 297.428 245.898 297.428 246.24C297.428 246.468 297.2 246.696 297.086 246.81C296.06 247.722 293.21 248.292 290.702 247.608C289.448 247.266 288.878 246.696 288.878 246.354C288.878 246.126 289.106 245.898 289.22 245.784C289.904 245.214 291.5 244.758 293.21 244.758C294.008 244.644 294.806 244.758 295.604 244.986ZM286.142 244.416L288.65 242.25L290.474 242.82C289.448 243.048 288.536 243.504 287.852 244.074C286.598 245.1 286.712 246.24 286.826 246.81C287.054 248.064 288.422 249.204 290.246 249.66C291.158 249.888 292.184 250.116 293.21 250.116C295.376 250.116 297.428 249.546 298.682 248.52C299.936 247.494 299.822 246.354 299.708 245.784C299.708 245.67 299.594 245.556 299.594 245.442L302.444 246.24L300.392 248.064C298.112 250.116 292.64 250.8 288.536 249.546C288.194 249.432 287.966 249.318 287.624 249.204C285.686 248.52 284.774 247.494 284.66 246.81C284.546 246.24 284.774 245.67 285.458 244.986L286.142 244.416ZM282.266 240.426L286.028 241.452L285.116 242.25L281.354 241.224L282.266 240.426ZM272.804 238.374C274.058 238.716 274.628 239.286 274.628 239.628C274.628 239.856 274.4 240.084 274.286 240.198C273.26 241.11 270.41 241.68 267.902 240.996C266.648 240.654 266.078 240.084 266.078 239.742C266.078 239.514 266.306 239.286 266.42 239.172C267.104 238.602 268.7 238.146 270.41 238.146C271.322 238.146 272.12 238.26 272.804 238.374ZM263.342 237.804L265.85 235.638L267.674 236.208C266.648 236.436 265.736 236.892 265.052 237.462C263.798 238.488 263.912 239.628 264.026 240.198C264.254 241.452 265.622 242.592 267.446 243.048C268.358 243.276 269.384 243.504 270.41 243.504C272.576 243.504 274.628 242.934 275.882 241.908C277.136 240.882 277.022 239.742 276.908 239.172C276.908 239.058 276.794 238.944 276.794 238.83L279.644 239.628L278.276 240.768L277.592 241.452C275.312 243.504 269.84 244.188 265.736 242.934C263.114 242.136 261.974 240.996 261.86 240.198C261.746 239.628 261.974 239.058 262.658 238.374L263.342 237.804ZM229.142 225.378C229.94 225.378 230.738 225.606 231.422 225.72L263.342 234.954L262.43 235.752L231.764 226.86C230.966 226.632 230.054 226.518 229.142 226.404V225.378ZM150.368 332.31L149.228 333.336L114.914 323.418C112.976 322.848 112.064 321.708 112.064 321.252V259.464C112.064 259.122 113.09 257.868 114.914 257.298L224.582 225.606C225.266 225.378 225.95 225.264 226.862 225.264V226.404C225.95 226.518 225.038 226.632 224.24 226.86L122.666 256.158C120.614 256.728 118.448 258.438 118.448 260.262V318.972C118.448 320.796 120.614 322.392 122.666 323.076L148.886 330.6C150.14 330.942 150.71 331.512 150.71 331.854C150.71 331.968 150.482 332.196 150.368 332.31ZM159.488 336.186L162.908 333.222C165.188 331.17 170.66 330.486 174.764 331.74C177.386 332.538 178.526 333.678 178.64 334.476C178.754 335.046 178.526 335.616 177.842 336.3L173.282 340.29L159.488 336.186ZM224.582 354.996L183.542 343.14C184.568 342.228 187.418 341.658 189.926 342.342L224.24 352.26C225.038 352.488 225.95 352.602 226.862 352.716V354.768C226.862 354.996 226.976 355.11 226.976 355.338C226.178 355.338 225.266 355.224 224.582 354.996ZM228.002 346.788C227.318 346.788 226.862 347.244 226.862 347.928V350.436C226.178 350.436 225.494 350.322 224.924 350.094L190.61 340.176C189.698 339.948 188.672 339.72 187.646 339.72C185.48 339.72 183.428 340.29 182.174 341.316L181.034 342.342L176.018 340.86L179.438 337.896C180.806 336.756 181.376 335.274 181.034 333.906C180.578 331.968 178.64 330.372 175.562 329.46C170.66 328.092 164.504 328.89 161.54 331.398L156.98 335.388L151.964 333.906C153.218 332.88 153.104 331.74 152.99 331.17C152.762 329.916 151.394 328.776 149.57 328.32L123.35 320.796C121.64 320.34 120.728 319.2 120.728 318.972V260.262C120.728 259.92 121.64 258.894 123.35 258.438L224.924 229.14C225.494 229.026 226.178 228.912 226.862 228.798V231.42C226.862 232.104 227.318 232.56 228.002 232.56C228.686 232.56 229.142 232.104 229.142 231.42V228.798C229.826 228.798 230.51 228.912 231.08 229.14L260.378 237.576C260.264 237.804 260.036 238.032 259.922 238.26C259.922 238.26 259.922 238.374 259.808 238.374C259.694 238.602 259.58 238.83 259.58 239.058V239.172C259.466 239.4 259.466 239.628 259.466 239.856V239.97C259.466 240.198 259.466 240.426 259.58 240.768C260.036 242.706 261.974 244.302 265.052 245.214C265.394 245.328 265.736 245.442 266.192 245.442C266.306 245.442 266.42 245.442 266.534 245.556C266.762 245.556 267.104 245.67 267.332 245.67C267.446 245.67 267.56 245.67 267.674 245.67C268.016 245.67 268.358 245.784 268.586 245.784C268.7 245.784 268.7 245.784 268.814 245.784C269.156 245.784 269.612 245.784 269.954 245.784H270.068C270.182 245.784 270.182 245.784 270.296 245.784C270.638 245.784 270.866 245.784 271.208 245.784C271.322 245.784 271.436 245.784 271.55 245.784C271.892 245.784 272.12 245.784 272.462 245.67C272.576 245.67 272.576 245.67 272.69 245.67C273.032 245.67 273.374 245.556 273.83 245.442C273.944 245.442 274.058 245.442 274.172 245.328C274.4 245.214 274.742 245.214 274.97 245.1C275.084 245.1 275.198 244.986 275.312 244.986C275.654 244.872 275.882 244.758 276.224 244.644H276.338C276.68 244.53 276.908 244.416 277.25 244.188C277.364 244.188 277.364 244.074 277.478 244.074C277.706 243.96 277.934 243.846 278.048 243.732C278.162 243.732 278.162 243.618 278.276 243.618C278.504 243.39 278.732 243.276 278.96 243.048L279.188 242.82L283.064 243.96C282.95 244.188 282.722 244.416 282.608 244.644C282.608 244.644 282.608 244.758 282.494 244.758C282.38 244.986 282.266 245.214 282.266 245.442V245.556C282.152 245.784 282.152 246.012 282.152 246.24V246.354C282.152 246.582 282.152 246.81 282.266 247.152C282.722 249.09 284.66 250.686 287.738 251.598C288.08 251.712 288.422 251.826 288.878 251.826C288.992 251.826 289.106 251.826 289.22 251.94C289.448 251.94 289.79 252.054 290.018 252.054C290.132 252.054 290.246 252.054 290.36 252.054C290.702 252.054 290.93 252.168 291.272 252.168C291.386 252.168 291.386 252.168 291.5 252.168C291.842 252.168 292.298 252.168 292.64 252.168H292.754C292.868 252.168 292.868 252.168 292.982 252.168C293.324 252.168 293.552 252.168 293.894 252.168C294.008 252.168 294.122 252.168 294.236 252.168C294.578 252.168 294.806 252.168 295.148 252.054C295.262 252.054 295.262 252.054 295.376 252.054C295.718 252.054 296.06 251.94 296.516 251.826C296.63 251.826 296.744 251.826 296.858 251.712C297.086 251.598 297.428 251.598 297.656 251.484C297.77 251.484 297.884 251.37 297.998 251.37C298.34 251.256 298.568 251.142 298.91 251.028H299.024C299.366 250.914 299.594 250.8 299.936 250.572C300.05 250.572 300.05 250.458 300.164 250.458C300.392 250.344 300.62 250.23 300.734 250.116C300.848 250.116 300.848 250.002 300.962 250.002C301.19 249.774 301.418 249.66 301.646 249.432L301.874 249.204L332.426 258.096C334.136 258.552 335.048 259.692 335.048 259.92V265.278H320.684V264.48C320.684 262.77 318.86 261.402 316.922 260.832L303.812 257.07C302.672 256.728 301.304 256.728 300.05 257.07L297.314 257.868C295.718 258.324 293.096 258.324 291.5 257.868L279.416 254.334C278.96 254.22 278.732 254.106 278.732 253.992V251.256C278.732 250.23 277.706 249.432 276.794 249.204L271.892 247.836L270.98 247.608C270.182 247.38 268.928 247.38 268.13 247.608L263.228 248.976C262.43 249.204 261.518 249.204 260.72 248.976L248.636 245.442C247.154 244.986 246.242 244.074 246.242 243.732V242.136C246.242 240.996 245.33 240.084 243.848 239.742L230.738 235.98C228.914 235.41 226.064 235.41 224.24 235.98L138.284 260.832C136.46 261.402 134.522 262.77 134.522 264.48V314.184C134.522 315.894 136.346 317.262 138.284 317.832L199.958 335.616C204.404 336.87 209.99 336.87 214.436 335.616L263.798 321.366C265.166 320.91 267.56 320.91 268.928 321.366L280.442 324.672C284.318 325.812 288.992 325.812 292.868 324.672L316.124 317.946L316.694 317.832C318.518 317.262 320.456 315.894 320.456 314.184V313.386H334.82V318.744C334.82 319.086 333.908 320.112 332.198 320.568L230.624 349.866C230.054 349.98 229.37 350.094 228.686 350.208V347.7C229.142 347.358 228.686 346.788 228.002 346.788ZM228.002 246.126C228.686 246.126 229.142 245.67 229.142 244.986V242.82C229.712 242.82 230.168 242.934 230.624 243.048L243.734 246.81C244.19 246.924 244.418 247.038 244.418 247.152V248.634C244.418 250.458 246.47 251.94 248.408 252.51L260.492 256.044C261.632 256.386 263 256.386 264.254 256.044L269.156 254.676C269.498 254.562 270.296 254.562 270.752 254.676L276.566 256.386C276.68 256.386 276.794 256.5 276.794 256.5V259.008C276.794 260.148 277.706 261.06 279.188 261.402L291.272 264.936C293.21 265.506 296.288 265.506 298.34 264.936L301.076 264.138C301.874 263.91 302.786 263.91 303.584 264.138L312.134 266.646C310.88 267.33 310.196 268.356 310.196 269.496C310.196 270.978 307.232 272.802 302.9 273.03L286.826 273.828C275.654 262.884 253.766 256.158 229.37 255.93V251.826C229.37 251.142 228.914 250.686 228.23 250.686C227.546 250.686 227.09 251.142 227.09 251.826V255.93C202.238 256.158 180.008 263.226 169.064 274.512L144.098 281.694C142.844 282.036 141.59 282.948 141.59 284.202V312.702C141.59 313.956 142.844 314.868 144.098 315.21L193.346 329.46C193.916 329.574 194.6 329.688 195.284 329.688C195.968 329.688 196.652 329.574 197.222 329.46L215.918 324.102C218.312 323.418 221.162 323.076 223.898 323.19C224.924 323.19 225.95 323.19 226.976 323.19V327.408C226.976 328.092 227.432 328.548 228.116 328.548C228.8 328.548 229.256 328.092 229.256 327.408V323.19C249.776 322.962 269.156 317.946 281.24 309.624L302.786 310.764C307.232 310.992 310.082 312.816 310.082 314.298C310.082 315.438 310.88 316.464 312.134 317.148L292.868 322.734C289.448 323.76 285.116 323.76 281.696 322.734L270.182 319.428C268.358 318.858 265.508 318.858 263.684 319.428L214.322 333.678C210.218 334.818 205.202 334.818 201.212 333.678L139.538 315.894C138.284 315.552 137.486 314.754 137.486 314.526V269.496C137.486 269.268 138.284 268.47 139.538 268.014L225.494 243.162C225.95 243.048 226.406 242.934 226.976 242.934V245.1C226.862 245.67 227.318 246.126 228.002 246.126ZM277.136 273.486L274.628 274.512L270.752 274.74L276.566 273.144L277.136 273.486ZM266.078 273.486C266.534 273.714 266.876 273.942 267.332 274.17C267.446 274.284 267.56 274.284 267.674 274.398C267.902 274.512 268.13 274.626 268.358 274.854L217.058 277.59C210.674 277.932 206 280.668 206 284.202V299.706C206 303.24 210.674 305.976 217.058 306.318L226.862 306.888V313.728C226.862 314.412 227.318 314.868 228.002 314.868C228.686 314.868 229.142 314.412 229.142 313.728V307.002L260.264 308.598C259.808 308.826 259.352 308.94 258.896 309.168C258.554 309.282 258.212 309.624 258.212 309.966C258.098 310.308 258.326 310.764 258.554 310.992L261.29 313.5L259.808 313.956L254.792 310.878C254.564 310.764 254.222 310.65 253.88 310.764C252.74 311.106 251.6 311.448 250.46 311.676C250.118 311.79 249.776 312.018 249.662 312.36C249.548 312.702 249.548 313.044 249.776 313.386L251.486 316.122L249.434 316.578L245.786 313.158C245.558 312.93 245.216 312.816 244.76 312.816C243.506 313.044 242.252 313.158 241.112 313.386C240.77 313.386 240.542 313.614 240.314 313.842C240.086 314.07 240.086 314.412 240.086 314.754L240.77 317.832L238.262 318.06L236.096 314.526C235.868 314.184 235.412 313.956 235.07 313.956C233.816 314.07 232.562 314.07 231.194 314.184C230.624 314.184 230.168 314.64 230.054 315.096L229.484 318.516H226.748L226.178 315.096C226.064 314.526 225.608 314.184 225.038 314.184C223.784 314.184 222.416 314.07 221.162 313.956C220.706 313.956 220.364 314.184 220.136 314.526L218.084 318.06L215.576 317.832L216.26 314.754C216.374 314.412 216.26 314.07 216.032 313.842C215.804 313.614 215.576 313.386 215.234 313.386C214.094 313.272 212.84 313.044 211.586 312.816C211.244 312.702 210.902 312.816 210.56 313.158L206.912 316.578L204.86 316.122L206.57 313.272C206.798 312.93 206.798 312.588 206.684 312.246C206.57 311.904 206.228 311.676 205.886 311.562C204.746 311.334 203.606 310.992 202.466 310.65C202.124 310.536 201.782 310.65 201.554 310.764L196.538 313.842L195.056 313.386L197.792 310.878C198.134 310.65 198.248 310.194 198.134 309.852C198.02 309.51 197.792 309.168 197.45 309.054C196.31 308.598 195.398 308.256 194.486 307.8C194.258 307.686 193.916 307.686 193.574 307.8L187.304 310.422L186.392 309.966L190.268 307.686C190.61 307.458 190.838 307.116 190.838 306.66C190.838 306.204 190.61 305.862 190.268 305.634C189.356 305.178 188.558 304.608 187.874 304.152C187.646 303.924 187.304 303.924 186.962 304.038L179.78 305.976L179.324 305.634L184.226 303.582C184.568 303.468 184.91 303.126 184.91 302.67C185.024 302.328 184.796 301.872 184.568 301.644C183.884 301.074 183.314 300.504 182.744 299.934C182.516 299.706 182.174 299.592 181.718 299.592L173.966 300.846L173.738 300.618L179.78 299.022C180.122 298.908 180.464 298.68 180.578 298.338C180.692 297.996 180.692 297.654 180.464 297.312C180.008 296.742 179.666 296.172 179.438 295.602C179.21 295.26 178.868 294.918 178.412 295.032L170.546 295.488L170.432 295.26L177.386 294.234C177.728 294.234 177.956 294.006 178.184 293.778C178.412 293.55 178.412 293.208 178.298 292.866C178.184 292.296 178.07 291.726 177.956 291.042C177.842 290.472 177.386 290.016 176.93 290.016L169.292 289.674V289.56L176.93 289.218C177.5 289.218 177.956 288.762 177.956 288.192C178.07 287.622 178.184 287.052 178.298 286.368C178.412 286.026 178.298 285.684 178.184 285.456C178.07 285.228 177.728 285 177.386 285L170.432 283.974L170.546 283.746L178.412 284.202C178.868 284.202 179.324 283.974 179.438 283.632C179.78 283.062 180.122 282.492 180.464 281.922C180.692 281.58 180.692 281.238 180.578 280.896C180.464 280.554 180.122 280.326 179.78 280.212L173.738 278.616L173.966 278.388L181.718 279.642C182.06 279.642 182.402 279.528 182.744 279.3C183.314 278.73 183.884 278.16 184.568 277.59C184.91 277.362 185.024 276.906 184.91 276.564C184.796 276.222 184.568 275.88 184.226 275.652L179.324 273.6L179.78 273.258L186.962 275.196C187.304 275.31 187.646 275.196 187.874 275.082C188.672 274.512 189.47 274.056 190.268 273.6C190.61 273.372 190.838 273.03 190.838 272.574C190.838 272.118 190.61 271.776 190.268 271.548L186.392 269.268L187.304 268.812L193.574 271.434C193.916 271.548 194.144 271.548 194.486 271.434C195.512 270.978 196.538 270.522 197.45 270.18C197.792 270.066 198.134 269.724 198.134 269.382C198.248 269.04 198.02 268.584 197.792 268.356L195.056 265.848L196.538 265.392L201.554 268.47C201.782 268.584 202.124 268.698 202.466 268.584C203.606 268.242 204.746 267.9 205.886 267.672C206.228 267.558 206.57 267.33 206.684 266.988C206.798 266.646 206.798 266.304 206.57 265.962L204.86 263.226L206.912 262.77L210.56 266.19C210.788 266.418 211.13 266.532 211.586 266.532C212.84 266.304 214.094 266.19 215.234 265.962C215.576 265.962 215.804 265.734 216.032 265.506C216.26 265.278 216.26 264.936 216.26 264.594L215.576 261.516L218.084 261.288L220.25 264.822C220.478 265.164 220.82 265.392 221.276 265.392C222.53 265.278 223.784 265.278 225.152 265.164C225.722 265.164 226.178 264.708 226.292 264.252L226.862 260.832H229.598L230.168 264.252C230.282 264.822 230.738 265.164 231.308 265.164C232.562 265.164 233.93 265.278 235.184 265.392C235.64 265.392 235.982 265.164 236.21 264.822L238.262 261.288L240.77 261.516L240.086 264.594C239.972 264.936 240.086 265.278 240.314 265.506C240.542 265.734 240.77 265.962 241.112 265.962C242.252 266.076 243.506 266.304 244.76 266.532C245.102 266.646 245.444 266.532 245.786 266.19L249.434 262.77L251.486 263.226L249.776 266.076C249.548 266.418 249.548 266.76 249.662 267.102C249.776 267.444 250.118 267.672 250.46 267.786C251.6 268.014 252.74 268.356 253.88 268.698C254.222 268.812 254.564 268.698 254.792 268.584L259.808 265.506L261.29 265.962L258.554 268.47C258.212 268.698 258.098 269.154 258.212 269.496C258.326 269.838 258.554 270.18 258.896 270.294C260.036 270.75 260.948 271.092 261.86 271.548C262.088 271.662 262.43 271.662 262.772 271.548L269.042 268.926L269.954 269.382L266.078 271.662C265.736 271.89 265.508 272.232 265.508 272.688C265.508 272.916 265.736 273.258 266.078 273.486ZM228.002 291.954C227.318 291.954 226.862 292.41 226.862 293.094V295.26C220.022 294.918 215.234 292.068 215.234 289.446C215.234 288.192 216.26 286.938 218.084 285.912L234.842 294.234C233.132 294.804 231.194 295.146 229.028 295.146V292.98C229.142 292.41 228.686 291.954 228.002 291.954ZM226.862 297.54V299.82L217.172 299.364C211.7 299.022 208.28 296.856 208.28 295.032V284.202C208.28 282.264 211.7 280.098 217.172 279.87L226.862 279.414V281.58C218.996 281.922 212.954 285.342 212.954 289.674C212.954 294.006 218.996 297.312 226.862 297.54ZM220.934 284.772C222.644 284.202 224.582 283.86 226.862 283.746V286.14C226.862 286.824 227.318 287.28 228.002 287.28C228.686 287.28 229.142 286.824 229.142 286.14V283.746C235.982 284.088 240.77 286.938 240.77 289.56C240.77 290.814 239.63 292.182 237.806 293.208L220.934 284.772ZM200.3 323.076C199.844 323.874 198.362 324.786 195.968 325.128C194.258 325.356 192.548 325.242 191.18 324.9C190.724 324.786 190.268 324.672 189.926 324.444L200.3 323.076ZM188.216 322.392C188.216 322.278 188.216 322.278 188.216 322.392C188.672 321.594 190.154 320.682 192.548 320.34C193.118 320.226 193.574 320.226 194.144 320.226C194.372 320.226 194.714 320.226 194.942 320.226C195.056 320.226 195.17 320.226 195.284 320.226C195.626 320.226 196.082 320.34 196.424 320.34C196.766 320.454 197.108 320.454 197.45 320.568C197.564 320.568 197.678 320.682 197.792 320.682C198.02 320.796 198.248 320.796 198.476 320.91C198.59 320.91 198.59 320.91 198.704 321.024L188.216 322.392ZM264.938 308.826L268.244 309.054L269.954 310.08L269.042 310.536L264.938 308.826ZM302.786 303.924L229.142 300.048C229.142 300.048 229.142 300.048 229.142 299.934V297.54C232.562 297.426 235.526 296.742 237.92 295.602C238.148 295.602 238.376 295.488 238.604 295.26C241.34 293.778 242.936 291.726 242.936 289.56C242.936 285.228 236.894 281.808 229.028 281.466V279.3C229.028 279.186 229.028 279.186 229.028 279.186L280.1 276.45H280.442L281.582 276.336L302.9 275.196C308.372 274.854 312.362 272.46 312.362 269.382C312.362 268.812 313.958 267.786 316.58 267.786H319.772H343.142V311.22H316.694C313.958 311.22 312.248 310.194 312.248 309.624C312.362 306.66 308.372 304.152 302.786 303.924ZM343.94 321.252C343.94 321.48 343.484 322.05 342.8 322.62C342.344 322.962 341.774 323.19 341.09 323.418L231.422 354.996C230.738 355.224 229.94 355.338 229.028 355.338C229.142 355.224 229.142 354.996 229.142 354.768V352.716C230.054 352.602 230.966 352.488 231.764 352.26L333.338 322.962C335.39 322.392 337.556 320.682 337.556 318.858V313.5H343.94V321.252ZM343.94 265.62H337.556V260.262C337.556 258.438 335.39 256.842 333.338 256.158L304.154 247.722L305.066 246.924L341.09 257.298C343.028 257.868 343.94 259.008 343.94 259.464V265.62ZM328.094 294.234C332.654 294.234 336.188 292.296 336.188 289.674C336.188 287.052 332.768 285.114 328.094 285.114C323.534 285.114 320 287.052 320 289.674C320 292.296 323.534 294.234 328.094 294.234ZM328.094 288.876C329.69 288.876 330.716 289.446 330.83 289.56C330.716 289.788 329.804 290.358 328.094 290.358C326.384 290.358 325.472 289.788 325.358 289.674C325.586 289.446 326.498 288.876 328.094 288.876ZM203.606 331.284C204.404 332.652 206.342 333.336 208.28 333.336C208.622 333.336 209.078 333.336 209.42 333.222C211.13 332.994 212.498 332.31 213.068 331.17C213.41 330.486 213.41 329.802 213.068 329.118C213.068 329.118 213.068 329.118 213.068 329.004C212.156 327.408 209.42 326.838 207.254 327.18C205.544 327.408 204.176 328.092 203.606 329.232C203.264 329.916 203.264 330.714 203.606 331.284ZM328.094 308.028C332.654 308.028 336.188 306.09 336.188 303.468C336.188 300.846 332.768 298.908 328.094 298.908C323.534 298.908 320 300.846 320 303.468C320 306.09 323.534 308.028 328.094 308.028ZM328.094 301.074C331.628 301.074 333.908 302.442 333.908 303.354C333.908 303.696 333.566 304.152 332.996 304.494L326.27 301.188C326.84 301.188 327.524 301.074 328.094 301.074ZM323.306 302.328L330.032 305.634C329.462 305.748 328.892 305.748 328.208 305.748C324.674 305.748 322.394 304.38 322.394 303.468C322.394 303.126 322.622 302.67 323.306 302.328ZM98.2699 246.354C98.9539 246.354 99.4099 245.898 99.4099 245.214V238.374C99.4099 237.69 98.9539 237.234 98.2699 237.234C97.5859 237.234 97.1299 237.69 97.1299 238.374V245.214C97.1299 245.784 97.6999 246.354 98.2699 246.354ZM98.2699 218.88C98.9539 218.88 99.4099 218.424 99.4099 217.74V210.9C99.4099 210.216 98.9539 209.76 98.2699 209.76C97.5859 209.76 97.1299 210.216 97.1299 210.9V217.74C97.1299 218.31 97.6999 218.88 98.2699 218.88ZM98.2699 205.086C98.9539 205.086 99.4099 204.63 99.4099 203.946V197.106C99.4099 196.422 98.9539 195.966 98.2699 195.966C97.5859 195.966 97.1299 196.422 97.1299 197.106V203.946C97.1299 204.63 97.6999 205.086 98.2699 205.086ZM98.2699 232.56C98.9539 232.56 99.4099 232.104 99.4099 231.42V224.58C99.4099 223.896 98.9539 223.44 98.2699 223.44C97.5859 223.44 97.1299 223.896 97.1299 224.58V231.42C97.1299 232.104 97.6999 232.56 98.2699 232.56ZM98.2699 191.406C98.9539 191.406 99.4099 190.95 99.4099 190.266V183.426C99.4099 182.742 98.9539 182.286 98.2699 182.286C97.5859 182.286 97.1299 182.742 97.1299 183.426V190.266C97.1299 190.95 97.6999 191.406 98.2699 191.406ZM228.002 360.582C227.318 360.582 226.862 361.038 226.862 361.722V365.142C226.862 365.826 227.318 366.282 228.002 366.282C228.686 366.282 229.142 365.826 229.142 365.142V361.722C229.142 361.038 228.686 360.582 228.002 360.582ZM98.2699 163.932C98.9539 163.932 99.4099 163.476 99.4099 162.792V155.952C99.4099 155.268 98.9539 154.812 98.2699 154.812C97.5859 154.812 97.1299 155.268 97.1299 155.952V162.792C97.1299 163.476 97.6999 163.932 98.2699 163.932ZM98.2699 177.726C98.9539 177.726 99.4099 177.27 99.4099 176.586V169.746C99.4099 169.062 98.9539 168.606 98.2699 168.606C97.5859 168.606 97.1299 169.062 97.1299 169.746V176.586C97.1299 177.156 97.6999 177.726 98.2699 177.726ZM357.734 182.286C357.05 182.286 356.594 182.742 356.594 183.426V190.266C356.594 190.95 357.05 191.406 357.734 191.406C358.418 191.406 358.874 190.95 358.874 190.266V183.426C358.874 182.742 358.304 182.286 357.734 182.286ZM357.734 209.76C357.05 209.76 356.594 210.216 356.594 210.9V217.74C356.594 218.424 357.05 218.88 357.734 218.88C358.418 218.88 358.874 218.424 358.874 217.74V210.9C358.874 210.216 358.304 209.76 357.734 209.76ZM357.734 168.492C357.05 168.492 356.594 168.948 356.594 169.632V176.472C356.594 177.156 357.05 177.612 357.734 177.612C358.418 177.612 358.874 177.156 358.874 176.472V169.632C358.874 169.062 358.304 168.492 357.734 168.492ZM357.734 195.966C357.05 195.966 356.594 196.422 356.594 197.106V203.946C356.594 204.63 357.05 205.086 357.734 205.086C358.418 205.086 358.874 204.63 358.874 203.946V197.106C358.874 196.536 358.304 195.966 357.734 195.966ZM357.734 154.812C357.05 154.812 356.594 155.268 356.594 155.952V162.792C356.594 163.476 357.05 163.932 357.734 163.932C358.418 163.932 358.874 163.476 358.874 162.792V155.952C358.874 155.382 358.304 154.812 357.734 154.812ZM228.002 264.48C227.318 264.48 226.862 264.936 226.862 265.62V272.46C226.862 273.144 227.318 273.6 228.002 273.6C228.686 273.6 229.142 273.144 229.142 272.46V265.62C229.142 265.05 228.686 264.48 228.002 264.48ZM357.962 250.914C356.48 247.38 353.402 244.302 349.868 243.276L236.666 210.558C231.992 209.19 224.354 209.19 219.566 210.558L106.364 243.276C102.83 244.302 99.7519 247.38 98.2699 250.914C97.6999 251.028 97.3579 251.484 97.3579 252.054V339.378C97.3579 344.622 101.462 349.98 106.364 351.348L219.566 384.066C221.96 384.75 225.038 385.092 228.116 385.092C231.194 385.092 234.272 384.75 236.666 384.066L349.868 351.348C354.884 349.866 358.874 344.508 358.874 339.378V252.054C358.874 251.484 358.418 251.028 357.962 250.914ZM356.594 323.874C356.594 328.092 353.174 332.538 349.184 333.678L235.982 366.396C231.65 367.65 224.468 367.65 220.136 366.396L106.934 333.678C102.944 332.538 99.5239 327.978 99.5239 323.874V255.246C99.5239 251.028 102.944 246.582 106.934 245.442L220.136 212.724C221.96 212.154 224.468 211.926 226.862 211.812V217.512C226.862 218.196 227.318 218.652 228.002 218.652C228.686 218.652 229.142 218.196 229.142 217.512V211.812C231.65 211.926 234.044 212.154 235.868 212.724L349.07 245.442C353.06 246.582 356.48 251.142 356.48 255.246V323.874H356.594ZM357.734 223.44C357.05 223.44 356.594 223.896 356.594 224.58V231.42C356.594 232.104 357.05 232.56 357.734 232.56C358.418 232.56 358.874 232.104 358.874 231.42V224.58C358.874 224.01 358.304 223.44 357.734 223.44ZM229.142 203.832V196.992C229.142 196.308 228.686 195.852 228.002 195.852C227.318 195.852 226.862 196.308 226.862 196.992V203.832C226.862 204.516 227.318 204.972 228.002 204.972C228.686 204.972 229.142 204.516 229.142 203.832ZM357.734 237.12C357.05 237.12 356.594 237.576 356.594 238.26V245.1C356.594 245.784 357.05 246.24 357.734 246.24C358.418 246.24 358.874 245.784 358.874 245.1V238.26C358.874 237.69 358.304 237.12 357.734 237.12Z" fill="#282C4C"/>
</svg>
