<svg width="456" height="456" viewBox="0 0 456 456" fill="none" xmlns="http://www.w3.org/2000/svg">
<path d="M117.078 155.952L169.062 125.97C170.202 125.286 171 124.032 171 122.664V62.586C171 61.218 170.316 59.964 169.062 59.28L117.078 29.298C115.938 28.614 114.456 28.614 113.202 29.298L61.2183 59.28C60.0783 59.964 59.2803 61.218 59.2803 62.586V122.664C59.2803 124.032 59.9643 125.286 61.2183 125.97L113.202 155.952C114.456 156.636 115.824 156.636 117.078 155.952Z" fill="#F48667"/>
<path d="M136.914 42.522H115.14C114.456 42.522 114 42.066 114 41.382V29.982C114 29.298 114.456 28.842 115.14 28.842H136.914C137.37 28.842 137.826 29.07 137.94 29.526C138.168 29.982 138.054 30.438 137.712 30.78L132.924 35.682L137.712 40.584C138.054 40.926 138.168 41.382 137.94 41.838C137.712 42.294 137.37 42.522 136.914 42.522ZM116.28 40.242H134.178L130.416 36.48C129.96 36.024 129.96 35.34 130.416 34.884L134.178 31.122H116.28V40.242Z" fill="#282C4C"/>
<path d="M115.14 47.766C114.456 47.766 114 47.31 114 46.626V31.122C114 30.438 114.456 29.982 115.14 29.982C115.824 29.982 116.28 30.438 116.28 31.122V46.74C116.28 47.31 115.824 47.766 115.14 47.766Z" fill="#282C4C"/>
<path d="M160.398 76.152H69.8822C69.1982 76.152 68.7422 75.696 68.7422 75.012V69.312C68.7422 68.856 68.9702 68.514 69.4262 68.286L114.684 45.6C115.026 45.486 115.368 45.486 115.71 45.6L160.968 68.286C161.31 68.514 161.652 68.856 161.652 69.312V75.012C161.538 75.582 161.082 76.152 160.398 76.152ZM71.0222 73.872H159.258V69.996L115.14 47.994L71.0222 69.996V73.872Z" fill="#282C4C"/>
<path d="M147.63 70.452H82.6505C82.0805 70.452 81.6245 70.11 81.5105 69.54C81.3965 68.97 81.6245 68.514 82.0805 68.286L114.57 52.098C114.912 51.984 115.254 51.984 115.596 52.098L148.086 68.286C148.542 68.514 148.77 69.084 148.656 69.54C148.656 70.11 148.2 70.452 147.63 70.452ZM87.4385 68.172H142.728L115.14 54.264L87.4385 68.172Z" fill="#282C4C"/>
<path d="M160.398 81.852H69.8822C69.1982 81.852 68.7422 81.396 68.7422 80.712V75.012C68.7422 74.328 69.1982 73.872 69.8822 73.872H160.398C161.082 73.872 161.538 74.328 161.538 75.012V80.712C161.538 81.282 161.082 81.852 160.398 81.852ZM71.0222 79.572H159.258V76.152H71.0222V79.572Z" fill="#282C4C"/>
<path d="M153.672 119.928H76.6078C75.9238 119.928 75.4678 119.472 75.4678 118.788V113.088C75.4678 112.404 75.9238 111.948 76.6078 111.948H153.558C154.242 111.948 154.698 112.404 154.698 113.088V118.788C154.812 119.472 154.242 119.928 153.672 119.928ZM77.7478 117.648H152.418V114.228H77.7478V117.648Z" fill="#282C4C"/>
<path d="M156.978 125.628H73.3021C72.6181 125.628 72.1621 125.172 72.1621 124.488V118.788C72.1621 118.104 72.6181 117.648 73.3021 117.648H157.092C157.776 117.648 158.232 118.104 158.232 118.788V124.488C158.118 125.058 157.662 125.628 156.978 125.628ZM74.4421 123.348H155.952V119.928H74.4421V123.348Z" fill="#282C4C"/>
<path d="M160.398 131.328H69.8822C69.1982 131.328 68.7422 130.872 68.7422 130.188V124.488C68.7422 123.804 69.1982 123.348 69.8822 123.348H160.398C161.082 123.348 161.538 123.804 161.538 124.488V130.188C161.538 130.758 161.082 131.328 160.398 131.328ZM71.0222 129.048H159.258V125.628H71.0222V129.048Z" fill="#282C4C"/>
<path d="M91.4278 87.438H76.6078C75.9238 87.438 75.4678 86.982 75.4678 86.298V80.598C75.4678 79.914 75.9238 79.458 76.6078 79.458H91.3138C91.9978 79.458 92.4538 79.914 92.4538 80.598V86.298C92.5678 86.982 91.9978 87.438 91.4278 87.438ZM77.7478 85.158H90.1738V81.738H77.7478V85.158Z" fill="#282C4C"/>
<path d="M91.4278 114.228H76.6078C75.9238 114.228 75.4678 113.772 75.4678 113.088V107.388C75.4678 106.704 75.9238 106.248 76.6078 106.248H91.3138C91.9978 106.248 92.4538 106.704 92.4538 107.388V113.088C92.5678 113.772 91.9978 114.228 91.4278 114.228ZM77.7478 111.948H90.1738V108.528H77.7478V111.948Z" fill="#282C4C"/>
<path d="M89.148 108.528H78.888C78.204 108.528 77.748 108.072 77.748 107.388V86.298C77.748 85.614 78.204 85.158 78.888 85.158H89.148C89.832 85.158 90.288 85.614 90.288 86.298V107.388C90.288 108.072 89.832 108.528 89.148 108.528ZM80.028 106.248H88.008V87.438H80.028V106.248Z" fill="#282C4C"/>
<path d="M84.0179 104.082C83.3339 104.082 82.8779 103.626 82.8779 102.942V90.858C82.8779 90.174 83.3339 89.718 84.0179 89.718C84.7019 89.718 85.1579 90.174 85.1579 90.858V102.942C85.1579 103.512 84.7019 104.082 84.0179 104.082Z" fill="#282C4C"/>
<path d="M153.672 87.438H138.966C138.282 87.438 137.826 86.982 137.826 86.298V80.598C137.826 79.914 138.282 79.458 138.966 79.458H153.672C154.356 79.458 154.812 79.914 154.812 80.598V86.298C154.812 86.982 154.242 87.438 153.672 87.438ZM139.992 85.158H152.418V81.738H139.992V85.158Z" fill="#282C4C"/>
<path d="M153.672 114.228H138.966C138.282 114.228 137.826 113.772 137.826 113.088V107.388C137.826 106.704 138.282 106.248 138.966 106.248H153.672C154.356 106.248 154.812 106.704 154.812 107.388V113.088C154.812 113.772 154.242 114.228 153.672 114.228ZM139.992 111.948H152.418V108.528H139.992V111.948Z" fill="#282C4C"/>
<path d="M151.392 108.528H141.132C140.448 108.528 139.992 108.072 139.992 107.388V86.298C139.992 85.614 140.448 85.158 141.132 85.158H151.392C152.076 85.158 152.532 85.614 152.532 86.298V107.388C152.532 108.072 151.962 108.528 151.392 108.528ZM142.272 106.248H150.252V87.438H142.272V106.248Z" fill="#282C4C"/>
<path d="M146.262 104.082C145.578 104.082 145.122 103.626 145.122 102.942V90.858C145.122 90.174 145.578 89.718 146.262 89.718C146.946 89.718 147.402 90.174 147.402 90.858V102.942C147.402 103.512 146.832 104.082 146.262 104.082Z" fill="#282C4C"/>
<path d="M132.924 87.438H118.218C117.534 87.438 117.078 86.982 117.078 86.298V80.598C117.078 79.914 117.534 79.458 118.218 79.458H132.924C133.608 79.458 134.064 79.914 134.064 80.598V86.298C134.064 86.982 133.494 87.438 132.924 87.438ZM119.244 85.158H131.67V81.738H119.244V85.158Z" fill="#282C4C"/>
<path d="M132.924 114.228H118.218C117.534 114.228 117.078 113.772 117.078 113.088V107.388C117.078 106.704 117.534 106.248 118.218 106.248H132.924C133.608 106.248 134.064 106.704 134.064 107.388V113.088C134.064 113.772 133.494 114.228 132.924 114.228ZM119.244 111.948H131.67V108.528H119.244V111.948Z" fill="#282C4C"/>
<path d="M130.644 108.528H120.384C119.7 108.528 119.244 108.072 119.244 107.388V86.298C119.244 85.614 119.7 85.158 120.384 85.158H130.644C131.328 85.158 131.784 85.614 131.784 86.298V107.388C131.784 108.072 131.214 108.528 130.644 108.528ZM121.524 106.248H129.504V87.438H121.524V106.248Z" fill="#282C4C"/>
<path d="M125.514 104.082C124.83 104.082 124.374 103.626 124.374 102.942V90.858C124.374 90.174 124.83 89.718 125.514 89.718C126.198 89.718 126.654 90.174 126.654 90.858V102.942C126.654 103.512 126.084 104.082 125.514 104.082Z" fill="#282C4C"/>
<path d="M112.176 87.438H97.3558C96.6718 87.438 96.2158 86.982 96.2158 86.298V80.598C96.2158 79.914 96.6718 79.458 97.3558 79.458H112.062C112.746 79.458 113.202 79.914 113.202 80.598V86.298C113.316 86.982 112.746 87.438 112.176 87.438ZM98.4958 85.158H110.922V81.738H98.4958V85.158Z" fill="#282C4C"/>
<path d="M112.176 114.228H97.3558C96.6718 114.228 96.2158 113.772 96.2158 113.088V107.388C96.2158 106.704 96.6718 106.248 97.3558 106.248H112.062C112.746 106.248 113.202 106.704 113.202 107.388V113.088C113.316 113.772 112.746 114.228 112.176 114.228ZM98.4958 111.948H110.922V108.528H98.4958V111.948Z" fill="#282C4C"/>
<path d="M109.896 108.528H99.6361C98.9521 108.528 98.4961 108.072 98.4961 107.388V86.298C98.4961 85.614 98.9521 85.158 99.6361 85.158H109.896C110.58 85.158 111.036 85.614 111.036 86.298V107.388C111.036 108.072 110.466 108.528 109.896 108.528ZM100.776 106.248H108.756V87.438H100.776V106.248Z" fill="#282C4C"/>
<path d="M104.766 104.082C104.082 104.082 103.626 103.626 103.626 102.942V90.858C103.626 90.174 104.082 89.718 104.766 89.718C105.45 89.718 105.906 90.174 105.906 90.858V102.942C105.906 103.512 105.45 104.082 104.766 104.082Z" fill="#282C4C"/>
<path d="M229.938 291.384L281.922 261.402C283.062 260.718 283.86 259.464 283.86 258.096V198.018C283.86 196.65 283.176 195.396 281.922 194.712L229.938 164.73C228.798 164.046 227.316 164.046 226.062 164.73L174.078 194.712C172.938 195.396 172.14 196.65 172.14 198.018V258.096C172.14 259.464 172.824 260.718 174.078 261.402L226.062 291.384C227.316 292.068 228.684 292.068 229.938 291.384Z" fill="#F48667"/>
<path d="M268.584 253.65H187.302C185.82 253.65 184.566 252.396 184.566 250.914V196.08C184.566 194.598 185.82 193.344 187.302 193.344H268.584C270.066 193.344 271.32 194.598 271.32 196.08V250.8C271.434 252.396 270.18 253.65 268.584 253.65ZM187.416 195.396C187.188 195.396 186.96 195.624 186.96 195.852V250.8C186.96 251.028 187.188 251.256 187.416 251.256H268.698C268.926 251.256 269.154 251.028 269.154 250.8V195.966C269.154 195.738 268.926 195.51 268.698 195.51H187.416V195.396Z" fill="#282C4C"/>
<path d="M267.216 249.432H188.67V197.22H267.216V249.432ZM191.064 247.152H265.05V199.5H191.064V247.152Z" fill="#282C4C"/>
<path d="M253.308 240.198H202.578C200.64 240.198 199.158 238.716 199.158 236.778V211.014C199.158 209.076 200.64 207.594 202.578 207.594H253.308C255.246 207.594 256.728 209.076 256.728 211.014V236.778C256.728 238.716 255.246 240.198 253.308 240.198ZM202.692 209.874C202.008 209.874 201.552 210.33 201.552 211.014V236.778C201.552 237.462 202.008 237.918 202.692 237.918H253.422C254.106 237.918 254.562 237.462 254.562 236.778V211.014C254.562 210.33 254.106 209.874 253.422 209.874H202.692Z" fill="#282C4C"/>
<path d="M255.702 215.916H200.412V218.196H255.702V215.916Z" fill="#282C4C"/>
<path d="M204.516 214.092C204.174 214.092 203.946 213.978 203.718 213.75C203.49 213.522 203.376 213.18 203.376 212.952C203.376 212.61 203.49 212.382 203.718 212.154C204.174 211.698 204.858 211.698 205.314 212.154C205.542 212.382 205.656 212.61 205.656 212.952C205.656 213.294 205.542 213.522 205.314 213.75C205.2 213.864 204.858 214.092 204.516 214.092Z" fill="#282C4C"/>
<path d="M208.735 214.092C208.621 214.092 208.393 214.092 208.279 213.978C208.165 213.864 208.051 213.864 207.937 213.75C207.709 213.522 207.595 213.18 207.595 212.952C207.595 212.61 207.709 212.382 207.937 212.154C208.051 212.04 208.165 211.926 208.279 211.926C208.507 211.812 208.735 211.812 208.963 211.926C209.077 211.926 209.077 211.926 209.191 211.926C209.305 211.926 209.305 212.04 209.419 212.04L209.533 212.154C209.647 212.268 209.761 212.382 209.761 212.496C209.761 212.61 209.875 212.724 209.875 212.952C209.875 213.294 209.761 213.522 209.533 213.75C209.305 213.864 209.077 214.092 208.735 214.092Z" fill="#282C4C"/>
<path d="M212.953 214.092C212.611 214.092 212.383 213.978 212.155 213.75C212.041 213.636 211.926 213.522 211.926 213.408C211.926 213.294 211.813 213.18 211.813 212.952C211.813 212.724 211.812 212.61 211.926 212.496C211.926 212.382 212.041 212.268 212.155 212.154C212.155 212.04 212.269 212.04 212.383 212.04C212.383 212.04 212.496 211.926 212.61 211.926C212.724 211.926 212.724 211.926 212.838 211.926C213.18 211.812 213.637 211.926 213.865 212.268C214.093 212.496 214.206 212.724 214.206 213.066C214.206 213.408 214.093 213.636 213.865 213.864C213.751 213.978 213.637 214.092 213.523 214.092C213.181 213.978 213.067 214.092 212.953 214.092Z" fill="#282C4C"/>
<path d="M251.484 213.978H217.17C216.486 213.978 216.03 213.522 216.03 212.838C216.03 212.154 216.486 211.698 217.17 211.698H251.484C252.168 211.698 252.624 212.154 252.624 212.838C252.624 213.522 252.054 213.978 251.484 213.978Z" fill="#282C4C"/>
<path d="M247.836 222.186H223.44V224.466H247.836V222.186Z" fill="#282C4C"/>
<path d="M247.836 226.404H223.44V228.684H247.836V226.404Z" fill="#282C4C"/>
<path d="M237.348 230.622H223.44V232.902H237.348V230.622Z" fill="#282C4C"/>
<path d="M213.18 234.954C212.952 234.954 212.838 234.954 212.61 234.84L207.594 231.99C207.252 231.762 207.024 231.42 207.024 230.964V225.264C207.024 224.808 207.252 224.466 207.594 224.238L212.61 221.388C212.952 221.16 213.408 221.16 213.75 221.388L218.766 224.238C219.108 224.466 219.336 224.808 219.336 225.264V230.964C219.336 231.42 219.108 231.762 218.766 231.99L213.75 234.84C213.636 234.954 213.408 234.954 213.18 234.954ZM209.304 230.28L213.18 232.446L217.056 230.28V225.834L213.18 223.668L209.304 225.834V230.28Z" fill="#282C4C"/>
<path d="M248.976 263.682H243.162L241.794 252.51H214.32L212.952 263.682H205.998C204.63 263.682 203.49 264.822 203.49 266.19V266.304H251.484V266.19C251.37 264.822 250.23 263.682 248.976 263.682Z" fill="#282C4C"/>
<path d="M252.51 267.444H202.236V266.19C202.236 264.252 203.832 262.542 205.884 262.542H211.812L213.18 251.37H242.706L244.074 262.542H248.862C250.8 262.542 252.51 264.138 252.51 266.19V267.444ZM204.972 265.164H249.774C249.546 264.936 249.204 264.822 248.862 264.822H242.136L240.768 253.65H215.232L213.864 264.822H205.884C205.542 264.822 205.2 264.936 204.972 265.164Z" fill="#292D4D"/>
<path d="M338.922 155.952L286.938 125.97C285.798 125.286 285 124.032 285 122.664V62.586C285 61.218 285.684 59.964 286.938 59.28L338.922 29.298C340.062 28.614 341.544 28.614 342.798 29.298L394.782 59.28C395.922 59.964 396.72 61.218 396.72 62.586V122.664C396.72 124.032 396.036 125.286 394.782 125.97L342.798 155.952C341.544 156.636 340.176 156.636 338.922 155.952Z" fill="#F48667"/>
<path d="M391.818 62.244H374.148L374.262 60.99C375.06 54.264 379.62 49.02 384.522 49.02C386.46 49.02 388.17 49.818 389.538 51.414C391.59 53.694 392.502 57.456 391.932 61.332L391.818 62.244ZM376.77 59.964H389.766C389.994 57 389.196 54.378 387.828 52.782C386.916 51.756 385.776 51.186 384.522 51.186C381.216 51.186 377.796 55.062 376.77 59.964Z" fill="#282C4C"/>
<path d="M391.818 62.244H374.148L374.262 60.99C375.06 54.264 379.62 49.02 384.522 49.02C386.46 49.02 388.17 49.818 389.538 51.414C391.59 53.694 392.502 57.456 391.932 61.332L391.818 62.244ZM376.77 59.964H389.766C389.994 57 389.196 54.378 387.828 52.782C386.916 51.756 385.776 51.186 384.522 51.186C381.216 51.186 377.796 55.062 376.77 59.964Z" fill="#282C4C"/>
<path d="M358.416 136.344C356.478 136.344 354.768 135.546 353.4 134.064C351.348 131.784 350.436 128.022 351.006 124.146L353.286 124.374C352.83 127.68 353.628 130.758 355.224 132.582C356.136 133.608 357.276 134.178 358.53 134.178C362.178 134.178 365.826 129.618 366.51 124.146L368.79 124.374C367.764 130.986 363.204 136.344 358.416 136.344Z" fill="#282C4C"/>
<path d="M358.416 136.344H297.312C295.374 136.344 293.664 135.546 292.296 134.064C290.244 131.784 289.332 128.022 289.902 124.146L290.016 123.12H353.4L353.286 124.374C352.83 127.68 353.628 130.758 355.224 132.582C356.136 133.608 357.276 134.178 358.53 134.178V136.344H358.416ZM291.954 125.286C291.726 128.25 292.524 130.872 293.892 132.468C294.804 133.494 295.944 134.064 297.198 134.064H353.4C351.576 132.012 350.664 128.82 350.892 125.4H291.954V125.286Z" fill="#282C4C"/>
<path d="M344.964 110.466H331.854V112.746H344.964V110.466Z" fill="#282C4C"/>
<path d="M350.892 106.362H327.066V108.642H350.892V106.362Z" fill="#282C4C"/>
<path d="M351.463 102.258H327.637V104.538H351.463V102.258Z" fill="#282C4C"/>
<path d="M336.528 82.422L336.414 81.966L334.476 81.738V79.8L332.766 79.002L333.45 77.064L332.196 75.696L333.336 73.986L332.538 72.276L334.134 70.908L334.02 68.97L335.958 68.172L336.414 66.234L338.466 66.006L339.492 64.182L341.43 64.524L342.912 63.042L344.508 64.068L346.332 63.042L347.472 64.524L349.524 64.182L350.094 66.006L352.032 66.234V68.172L353.742 68.97L353.058 70.908L354.312 72.276L353.172 73.986L353.97 75.696L352.374 77.064L352.488 79.002L350.55 79.8L350.094 81.738L348.042 81.966L347.814 82.422L351.348 92.796L347.472 91.314L345.42 95.418L341.772 84.816L335.502 95.418L334.476 91.314L330.258 92.796L336.528 82.422ZM342.456 80.028L348.954 77.292L349.752 70.566L343.938 67.83L337.44 70.566L336.642 77.292L342.456 80.028Z" fill="#282C4C"/>
<path d="M335.16 98.496L333.792 92.91L327.75 94.962L334.818 82.992L333.222 82.764V80.484L331.284 79.572L331.968 77.292L330.486 75.81L331.854 73.872L331.056 71.934L332.88 70.452L332.766 68.286L334.932 67.374L335.502 65.208L337.782 64.98L338.922 62.928L341.088 63.384L342.798 61.788L344.622 62.928L346.788 61.788L348.156 63.498L350.436 63.042L351.12 65.094L353.4 65.322V67.602L355.338 68.514L354.654 70.794L356.136 72.276L354.768 74.214L355.566 76.152L353.742 77.634L353.856 79.8L351.69 80.712L351.12 82.878L349.296 83.106L353.286 94.848L348.156 92.91L345.42 98.496L341.658 87.552L335.16 98.496ZM342.114 82.08L345.648 92.454L346.902 89.946L349.524 90.972L346.56 82.308L347.358 80.94L349.182 80.712L349.638 79.002L351.348 78.318L351.234 76.608L352.602 75.468L351.918 73.986L352.944 72.504L351.804 71.364L352.374 69.654L350.892 68.97V67.26L349.296 67.032L348.726 65.436L347.016 65.778L345.99 64.524L344.394 65.322L343.026 64.41L341.658 65.664L339.948 65.322L339.036 66.918L337.212 67.146L336.756 68.856L335.046 69.54L335.16 71.25L333.792 72.39L334.476 73.872L333.45 75.354L334.59 76.494L334.02 78.204L335.502 78.888V80.598L337.098 80.826L337.668 82.422L332.766 90.63L335.274 89.718L335.844 92.226L342.114 82.08ZM342.456 81.282L335.502 77.976L336.528 69.768L344.052 66.576L351.006 69.882L349.98 78.09L342.456 81.282ZM337.896 76.608L342.456 78.774L347.814 76.494L348.498 71.25L343.938 69.084L338.58 71.364L337.896 76.608Z" fill="#292D4D"/>
<path d="M358.416 136.344C356.478 136.344 354.768 135.546 353.4 134.064C351.576 132.012 350.664 128.82 350.892 125.4H305.064L313.158 60.99C313.956 54.264 318.516 49.02 323.418 49.02H384.522V51.3C380.874 51.3 377.226 55.86 376.542 61.332L368.562 124.374C367.764 130.986 363.204 136.344 358.416 136.344ZM307.572 123.006H353.4L353.286 124.26C352.83 127.566 353.628 130.644 355.224 132.468C356.136 133.494 357.276 134.064 358.53 134.064C362.178 134.064 365.826 129.504 366.51 124.032L374.49 60.99C374.946 56.886 376.77 53.466 379.278 51.3H323.532C319.884 51.3 316.236 55.86 315.552 61.332L307.572 123.006Z" fill="#282C4C"/>
<path d="M375.402 61.104C375.972 56.772 378.138 53.01 380.874 51.3C383.154 53.124 384.408 56.886 383.838 61.104H375.402Z" fill="#282C4C"/>
<path d="M384.978 62.244H374.148L374.262 60.99C374.832 56.43 377.112 52.326 380.304 50.274L380.988 49.818L381.672 50.274C384.408 52.44 385.662 56.544 385.092 61.218L384.978 62.244ZM376.77 59.964H382.926C383.04 57 382.356 54.264 380.874 52.668C378.936 54.264 377.454 57 376.77 59.964Z" fill="#292D4D"/>
<path d="M117.078 426.816L169.062 396.834C170.202 396.15 171 394.896 171 393.528V333.45C171 332.082 170.316 330.828 169.062 330.144L117.078 300.162C115.938 299.478 114.456 299.478 113.202 300.162L61.2183 330.144C60.0783 330.828 59.2803 332.082 59.2803 333.45V393.528C59.2803 394.896 59.9643 396.15 61.2183 396.834L113.202 426.816C114.456 427.5 115.824 427.5 117.078 426.816Z" fill="#F48667"/>
<path d="M127.681 402.762H102.601C98.8387 402.762 95.7607 399.684 95.7607 395.922V370.842C95.7607 367.08 98.8387 364.002 102.601 364.002H127.681C131.443 364.002 134.521 367.08 134.521 370.842V395.922C134.521 399.684 131.443 402.762 127.681 402.762ZM102.601 366.282C100.093 366.282 98.0407 368.334 98.0407 370.842V395.922C98.0407 398.43 100.093 400.482 102.601 400.482H127.681C130.189 400.482 132.241 398.43 132.241 395.922V370.842C132.241 368.334 130.189 366.282 127.681 366.282H102.601Z" fill="#282C4C"/>
<path d="M106.249 392.046H110.125V380.304H106.249V392.046ZM108.187 374.604C106.819 374.604 106.021 375.516 106.021 376.656C106.021 377.796 106.819 378.708 108.187 378.708C109.555 378.708 110.353 377.796 110.353 376.656C110.353 375.516 109.555 374.604 108.187 374.604ZM119.815 380.076C117.763 380.076 116.851 381.216 116.281 382.014V380.304H112.405C112.405 381.444 112.405 392.046 112.405 392.046H116.281V385.434C116.281 385.092 116.281 384.75 116.395 384.522C116.623 383.838 117.307 383.04 118.447 383.04C119.815 383.04 120.385 384.066 120.385 385.662V391.932H124.261V385.32C124.261 381.672 122.323 380.076 119.815 380.076Z" fill="#282C4C"/>
<path d="M95.0764 352.602H92.5684C92.5684 356.706 92.5684 361.722 92.5684 361.722H88.8064C88.8064 361.722 88.8064 356.706 88.8064 352.602H86.9824V349.41H88.8064V347.358C88.8064 345.876 89.4904 343.482 92.6824 343.482H95.5324V346.56C95.5324 346.56 93.8224 346.56 93.4804 346.56C93.1384 346.56 92.6824 346.674 92.6824 347.472V349.41H95.5324L95.0764 352.602Z" fill="#282C4C"/>
<path d="M146.376 348.84C146.376 348.954 146.376 349.182 146.376 349.296C146.376 354.198 142.614 359.898 135.774 359.898C133.608 359.898 131.67 359.328 130.074 358.188C130.416 358.188 130.644 358.188 130.986 358.188C132.696 358.188 134.406 357.618 135.66 356.592C134.064 356.592 132.696 355.452 132.126 353.97C132.354 353.97 132.582 354.084 132.81 354.084C133.152 354.084 133.494 354.084 133.836 353.97C132.126 353.628 130.872 352.146 130.872 350.322C131.328 350.55 131.898 350.778 132.582 350.778C131.556 350.094 130.872 348.954 130.872 347.7C130.872 347.016 131.1 346.332 131.328 345.762C133.152 348.042 135.888 349.524 139.08 349.638C138.966 349.41 138.966 349.068 138.966 348.84C138.966 346.788 140.676 345.078 142.728 345.078C143.754 345.078 144.78 345.534 145.464 346.218C146.262 346.104 147.174 345.762 147.858 345.306C147.63 346.218 146.946 346.902 146.262 347.358C147.06 347.244 147.744 347.016 148.428 346.788C147.744 347.7 147.06 348.27 146.376 348.84Z" fill="#282C4C"/>
<path d="M98.0403 371.982H78.6603C74.8983 371.982 71.8203 368.904 71.8203 365.142V340.062C71.8203 336.3 74.8983 333.222 78.6603 333.222H103.74C107.502 333.222 110.58 336.3 110.58 340.062V366.282H102.6C100.092 366.282 98.0403 368.334 98.0403 370.842V371.982ZM78.6603 335.502C76.1523 335.502 74.1003 337.554 74.1003 340.062V365.142C74.1003 367.65 76.1523 369.702 78.6603 369.702H95.8743C96.4443 366.51 99.1803 364.002 102.6 364.002H108.3V340.062C108.3 337.554 106.248 335.502 103.74 335.502H78.6603Z" fill="#282C4C"/>
<path d="M151.62 371.982H132.24V370.842C132.24 368.334 130.188 366.282 127.68 366.282H119.7V340.062C119.7 336.3 122.778 333.222 126.54 333.222H151.62C155.382 333.222 158.46 336.3 158.46 340.062V365.142C158.46 368.904 155.382 371.982 151.62 371.982ZM134.406 369.702H151.62C154.128 369.702 156.18 367.65 156.18 365.142V340.062C156.18 337.554 154.128 335.502 151.62 335.502H126.54C124.032 335.502 121.98 337.554 121.98 340.062V364.002H127.68C131.1 364.002 133.836 366.396 134.406 369.702Z" fill="#282C4C"/>
<path d="M342.798 426.816L394.782 396.834C395.922 396.15 396.72 394.896 396.72 393.528V333.45C396.72 332.082 396.036 330.828 394.782 330.144L342.798 300.162C341.658 299.478 340.176 299.478 338.922 300.162L286.938 330.144C285.798 330.828 285 332.082 285 333.45V393.528C285 394.896 285.684 396.15 286.938 396.834L338.922 426.816C340.176 427.5 341.544 427.5 342.798 426.816Z" fill="#F48667"/>
<path d="M377.34 394.098H307.572V338.352H377.34C380.076 338.352 382.356 340.632 382.356 343.368V389.196C382.356 391.818 380.076 394.098 377.34 394.098ZM309.852 391.818H377.34C378.822 391.818 380.076 390.564 380.076 389.082V343.254C380.076 341.772 378.822 340.518 377.34 340.518H309.852V391.818Z" fill="#282C4C"/>
<path d="M309.852 394.098H304.38C301.644 394.098 299.364 391.818 299.364 389.082V343.254C299.364 340.518 301.644 338.238 304.38 338.238H309.852V394.098ZM304.38 340.632C302.898 340.632 301.644 341.886 301.644 343.368V389.196C301.644 390.678 302.898 391.932 304.38 391.932H307.572V340.746H304.38V340.632Z" fill="#282C4C"/>
<path d="M313.044 394.098H307.572V338.352H313.044C315.78 338.352 318.06 340.632 318.06 343.368V389.196C318.06 391.818 315.894 394.098 313.044 394.098ZM309.852 391.818H313.044C314.526 391.818 315.78 390.564 315.78 389.082V343.254C315.78 341.772 314.526 340.518 313.044 340.518H309.852V391.818Z" fill="#282C4C"/>
<path d="M356.478 340.632H349.182V334.02C349.182 333.564 348.84 333.222 348.384 333.222H337.326C336.87 333.222 336.528 333.564 336.528 334.02V340.632H329.232V334.02C329.232 329.574 332.88 325.926 337.326 325.926H348.384C352.83 325.926 356.478 329.574 356.478 334.02V340.632ZM351.462 338.352H354.198V334.02C354.198 330.828 351.576 328.206 348.384 328.206H337.326C334.134 328.206 331.512 330.828 331.512 334.02V338.352H334.248V334.02C334.248 332.31 335.616 330.942 337.326 330.942H348.384C350.094 330.942 351.462 332.31 351.462 334.02V338.352Z" fill="#282C4C"/>
<path d="M350.322 340.632H346.332C345.648 340.632 345.192 340.176 345.192 339.492V334.02C345.192 333.564 344.85 333.222 344.394 333.222C343.71 333.222 343.254 332.766 343.254 332.082C343.254 331.398 343.71 330.942 344.394 330.942H348.384C350.094 330.942 351.462 332.31 351.462 334.02V339.492C351.462 340.062 351.006 340.632 350.322 340.632ZM347.472 338.352H349.182V334.02C349.182 333.564 348.84 333.222 348.384 333.222H347.358C347.472 333.45 347.472 333.792 347.472 334.02V338.352Z" fill="#282C4C"/>
<path d="M330.372 340.632H326.382C325.698 340.632 325.242 340.176 325.242 339.492V334.02C325.242 329.574 328.89 325.926 333.336 325.926H337.326C338.01 325.926 338.466 326.382 338.466 327.066C338.466 327.75 338.01 328.206 337.326 328.206C334.134 328.206 331.512 330.828 331.512 334.02V339.492C331.512 340.062 330.942 340.632 330.372 340.632ZM327.522 338.352H329.232V334.02C329.232 331.854 330.03 330.03 331.398 328.548C329.118 329.346 327.522 331.512 327.522 334.02V338.352Z" fill="#282C4C"/>
<path d="M356.364 381.672C356.022 381.672 355.68 381.558 355.452 381.216L351.462 375.972C351.234 375.63 351.12 375.174 351.348 374.832L353.856 368.79C353.97 368.448 354.312 368.106 354.768 368.106L360.696 367.308C361.266 367.194 361.722 367.536 361.95 368.106L362.976 370.842L364.686 371.184C364.914 371.184 365.256 371.412 365.37 371.64L366.396 373.008C366.624 373.35 366.738 373.806 366.51 374.148L364.002 380.19C363.888 380.532 363.546 380.874 363.09 380.874L356.592 381.672C356.478 381.672 356.478 381.672 356.364 381.672ZM353.742 375.174L356.934 379.392L362.178 378.708L364.23 373.806L363.888 373.35L362.064 373.008C361.608 372.894 361.38 372.666 361.152 372.324L360.24 369.816L355.794 370.386L353.742 375.174Z" fill="#282C4C"/>
<path d="M336.87 361.608C336.756 361.608 336.642 361.608 336.528 361.608L330.144 359.898C329.802 359.784 329.46 359.442 329.346 359.1L327.75 352.716C327.636 352.374 327.75 351.918 328.092 351.576L332.766 346.902C333.108 346.56 333.45 346.56 333.906 346.56L340.29 348.27C340.632 348.384 340.974 348.726 341.088 349.068L342.684 355.452C342.798 355.794 342.684 356.25 342.342 356.592L337.668 361.266C337.44 361.494 337.098 361.608 336.87 361.608ZM331.398 357.732L336.528 359.1L340.29 355.452L338.922 350.322L333.792 348.954L330.03 352.602L331.398 357.732Z" fill="#282C4C"/>
<path d="M368.563 374.148C368.449 374.148 368.449 374.148 368.335 374.148L361.837 373.008C361.381 372.894 361.153 372.666 360.925 372.324L358.759 366.168C358.645 365.826 358.645 365.37 358.987 365.028L363.205 360.012C363.433 359.67 363.889 359.556 364.231 359.67L370.729 360.81C371.185 360.924 371.413 361.152 371.641 361.494L373.807 367.65C373.921 367.992 373.921 368.448 373.579 368.79L369.361 373.806C369.247 373.92 368.905 374.148 368.563 374.148ZM362.977 370.728L368.107 371.64L371.527 367.65L369.703 362.634L364.573 361.722L361.153 365.712L362.977 370.728Z" fill="#282C4C"/>
<path d="M339.036 386.574C338.922 386.574 338.808 386.574 338.694 386.574L332.424 384.636C332.082 384.522 331.74 384.18 331.626 383.838L330.144 377.454C330.03 377.112 330.144 376.656 330.486 376.314L335.274 371.754C335.616 371.526 335.958 371.412 336.414 371.526L342.684 373.464C343.026 373.578 343.368 373.92 343.482 374.262L344.964 380.646C345.078 380.988 344.964 381.444 344.622 381.786L339.834 386.346C339.606 386.46 339.264 386.574 339.036 386.574ZM333.678 382.584L338.694 384.066L342.57 380.418L341.316 375.288L336.3 373.92L332.424 377.568L333.678 382.584Z" fill="#282C4C"/>
<path d="M115.14 178.41C114.114 178.41 112.974 178.182 112.062 177.612L43.2059 137.826C41.2679 136.686 40.1279 134.634 40.1279 132.468V52.896C40.1279 50.616 41.2679 48.564 43.2059 47.538L112.062 7.63802C114 6.49802 116.394 6.49802 118.332 7.63802L187.188 47.424C189.126 48.564 190.266 50.616 190.266 52.782V132.354C190.266 134.634 189.126 136.686 187.188 137.712L118.332 177.498C117.306 178.068 116.166 178.41 115.14 178.41ZM115.14 9.12002C114.456 9.12002 113.772 9.34802 113.202 9.69002L44.3459 49.362C43.0919 50.046 42.4079 51.414 42.4079 52.782V132.354C42.4079 133.722 43.2059 135.09 44.3459 135.774L113.202 175.56C114.456 176.244 115.938 176.244 117.192 175.56L186.048 135.774C187.302 135.09 187.986 133.722 187.986 132.354V52.896C187.986 51.528 187.188 50.16 186.048 49.476L117.078 9.69002C116.508 9.34802 115.824 9.12002 115.14 9.12002Z" fill="#282C4C"/>
<path d="M340.86 178.41C339.834 178.41 338.694 178.182 337.782 177.612L268.926 137.826C266.988 136.686 265.848 134.634 265.848 132.468V52.896C265.848 50.616 266.988 48.564 268.926 47.538L337.782 7.75197C339.72 6.61197 342.114 6.61197 344.052 7.75197L412.908 47.538C414.846 48.678 415.986 50.73 415.986 52.896V132.468C415.986 134.748 414.846 136.8 412.908 137.826L344.052 177.612C343.026 178.068 341.886 178.41 340.86 178.41ZM340.86 9.11997C340.176 9.11997 339.492 9.34797 338.922 9.68997L270.066 49.476C268.812 50.16 268.128 51.528 268.128 52.896V132.468C268.128 133.836 268.926 135.204 270.066 135.888L338.922 175.674C340.176 176.358 341.658 176.358 342.912 175.674L411.768 135.888C413.022 135.204 413.706 133.836 413.706 132.468V52.896C413.706 51.528 412.908 50.16 411.768 49.476L342.798 9.68997C342.228 9.34797 341.544 9.11997 340.86 9.11997Z" fill="#282C4C"/>
<path d="M228 313.728C226.974 313.728 225.834 313.5 224.922 312.93L156.066 273.144C154.128 272.004 152.988 269.952 152.988 267.786V188.214C152.988 186.048 154.128 183.882 156.066 182.856L224.922 143.07C226.86 141.93 229.254 141.93 231.192 143.07L300.048 182.856C301.986 183.996 303.126 186.048 303.126 188.214V267.786C303.126 269.952 301.986 272.118 300.048 273.144L231.192 312.93C230.166 313.5 229.026 313.728 228 313.728ZM228 144.552C227.316 144.552 226.632 144.78 226.062 145.122L157.206 184.908C155.952 185.592 155.268 186.96 155.268 188.328V267.9C155.268 269.268 156.066 270.636 157.206 271.32L226.062 311.106C227.316 311.79 228.798 311.79 230.052 311.106L298.908 271.32C300.162 270.636 300.846 269.268 300.846 267.9V188.328C300.846 186.96 300.048 185.592 298.908 184.908L230.052 145.122C229.368 144.666 228.684 144.552 228 144.552Z" fill="#282C4C"/>
<path d="M340.86 449.16C339.834 449.16 338.694 448.932 337.782 448.362L268.926 408.576C266.988 407.436 265.848 405.384 265.848 403.218V323.646C265.848 321.366 266.988 319.314 268.926 318.288L337.782 278.502C339.72 277.362 342.114 277.362 344.052 278.502L412.908 318.288C414.846 319.428 415.986 321.48 415.986 323.646V403.218C415.986 405.498 414.846 407.55 412.908 408.576L344.052 448.362C343.026 448.932 341.886 449.16 340.86 449.16ZM340.86 279.87C340.176 279.87 339.492 280.098 338.922 280.44L270.066 320.226C268.812 320.91 268.128 322.278 268.128 323.646V403.218C268.128 404.586 268.926 405.954 270.066 406.638L338.922 446.424C340.176 447.108 341.658 447.108 342.912 446.424L411.768 406.638C413.022 405.954 413.706 404.586 413.706 403.218V323.646C413.706 322.278 412.908 320.91 411.768 320.226L342.798 280.44C342.228 280.098 341.544 279.87 340.86 279.87Z" fill="#282C4C"/>
<path d="M115.14 449.16C114.114 449.16 112.974 448.932 112.062 448.362L43.2059 408.576C41.2679 407.436 40.1279 405.384 40.1279 403.218V323.646C40.1279 321.366 41.2679 319.314 43.2059 318.288L112.062 278.502C114 277.362 116.394 277.362 118.332 278.502L187.188 318.288C189.126 319.428 190.266 321.48 190.266 323.646V403.218C190.266 405.498 189.126 407.55 187.188 408.576L118.332 448.362C117.306 448.932 116.166 449.16 115.14 449.16ZM115.14 279.87C114.456 279.87 113.772 280.098 113.202 280.44L44.3459 320.226C43.0919 320.91 42.4079 322.278 42.4079 323.646V403.218C42.4079 404.586 43.2059 405.954 44.3459 406.638L113.202 446.424C114.456 447.108 115.938 447.108 117.192 446.424L186.048 406.638C187.302 405.954 187.986 404.586 187.986 403.218V323.646C187.986 322.278 187.188 320.91 186.048 320.226L117.078 280.44C116.508 280.098 115.824 279.87 115.14 279.87Z" fill="#282C4C"/>
<path d="M266.874 91.428H189.126V93.708H266.874V91.428Z" fill="#282C4C"/>
<path d="M266.874 362.292H189.126V364.572H266.874V362.292Z" fill="#282C4C"/>
<path d="M115.14 178.41C114.114 178.41 112.974 178.182 112.062 177.612L43.2059 137.826C41.2679 136.686 40.1279 134.634 40.1279 132.468V52.896C40.1279 50.616 41.2679 48.564 43.2059 47.538L112.062 7.63802C114 6.49802 116.394 6.49802 118.332 7.63802L187.188 47.424C189.126 48.564 190.266 50.616 190.266 52.782V132.354C190.266 134.634 189.126 136.686 187.188 137.712L118.332 177.498C117.306 178.068 116.166 178.41 115.14 178.41ZM115.14 9.12002C114.456 9.12002 113.772 9.34802 113.202 9.69002L44.3459 49.362C43.0919 50.046 42.4079 51.414 42.4079 52.782V132.354C42.4079 133.722 43.2059 135.09 44.3459 135.774L113.202 175.56C114.456 176.244 115.938 176.244 117.192 175.56L186.048 135.774C187.302 135.09 187.986 133.722 187.986 132.354V52.896C187.986 51.528 187.188 50.16 186.048 49.476L117.078 9.69002C116.508 9.34802 115.824 9.12002 115.14 9.12002Z" fill="#282C4C"/>
<path d="M154.014 229.14H119.358C101.802 229.14 85.9562 220.02 77.1782 204.744C68.4002 189.468 68.4002 171.342 77.1782 156.066L79.1162 157.206C70.6802 171.798 70.6802 189.126 79.1162 203.604C87.5522 218.196 102.6 226.86 119.358 226.86H154.014V229.14Z" fill="#282C4C"/>
<path d="M378.822 299.934L376.884 298.794C385.32 284.202 385.32 266.874 376.884 252.396C368.448 237.804 353.514 229.14 336.642 229.14H301.986V226.86H336.642C354.198 226.86 370.044 235.98 378.822 251.256C387.6 266.418 387.6 284.658 378.822 299.934Z" fill="#282C4C"/>
<path d="M266.873 96.9C269.392 96.9 271.434 94.8584 271.434 92.34C271.434 89.8216 269.392 87.78 266.873 87.78C264.355 87.78 262.313 89.8216 262.313 92.34C262.313 94.8584 264.355 96.9 266.873 96.9Z" fill="#282C4C"/>
<path d="M189.126 96.9C191.645 96.9 193.686 94.8584 193.686 92.34C193.686 89.8216 191.645 87.78 189.126 87.78C186.608 87.78 184.566 89.8216 184.566 92.34C184.566 94.8584 186.608 96.9 189.126 96.9Z" fill="#282C4C"/>
<path d="M266.873 367.992C269.392 367.992 271.434 365.95 271.434 363.432C271.434 360.914 269.392 358.872 266.873 358.872C264.355 358.872 262.313 360.914 262.313 363.432C262.313 365.95 264.355 367.992 266.873 367.992Z" fill="#282C4C"/>
<path d="M189.126 367.992C191.645 367.992 193.686 365.95 193.686 363.432C193.686 360.914 191.645 358.872 189.126 358.872C186.608 358.872 184.566 360.914 184.566 363.432C184.566 365.95 186.608 367.992 189.126 367.992Z" fill="#282C4C"/>
<path d="M301.986 232.56C304.504 232.56 306.546 230.518 306.546 228C306.546 225.482 304.504 223.44 301.986 223.44C299.467 223.44 297.426 225.482 297.426 228C297.426 230.518 299.467 232.56 301.986 232.56Z" fill="#282C4C"/>
<path d="M154.014 232.56C156.533 232.56 158.574 230.518 158.574 228C158.574 225.482 156.533 223.44 154.014 223.44C151.496 223.44 149.454 225.482 149.454 228C149.454 230.518 151.496 232.56 154.014 232.56Z" fill="#282C4C"/>
<path d="M78.2036 161.196C80.722 161.196 82.7635 159.154 82.7635 156.636C82.7635 154.118 80.722 152.076 78.2036 152.076C75.6851 152.076 73.6436 154.118 73.6436 156.636C73.6436 159.154 75.6851 161.196 78.2036 161.196Z" fill="#282C4C"/>
<path d="M377.796 303.924C380.315 303.924 382.356 301.882 382.356 299.364C382.356 296.846 380.315 294.804 377.796 294.804C375.278 294.804 373.236 296.846 373.236 299.364C373.236 301.882 375.278 303.924 377.796 303.924Z" fill="#282C4C"/>
</svg>
