<svg width="432" height="304" viewBox="0 0 432 304" fill="none" xmlns="http://www.w3.org/2000/svg">
<rect width="432" height="304" fill="#045CFF"/>
<g opacity="0.3">
<path d="M334.993 51.3474L302.758 68.8831C293.662 73.8312 288 83.357 288 93.7118L288 134.893C288 145.247 293.662 154.773 302.758 159.721L334.993 177.257C343.415 181.838 353.585 181.838 362.007 177.257L394.242 159.721C403.338 154.773 409 145.247 409 134.893L409 93.7118C409 83.357 403.338 73.8312 394.242 68.8831L362.007 51.3474C353.585 46.7661 343.415 46.7661 334.993 51.3474Z" fill="url(#paint0_linear)"/>
<path d="M334.974 61.9669L311.9 74.5185C302.839 79.4479 297.198 88.9379 297.198 99.2536L297.198 129.105C297.198 139.42 302.839 148.91 311.9 153.84L334.974 166.391C343.363 170.955 353.495 170.955 361.885 166.391L384.958 153.84C394.02 148.91 399.661 139.42 399.661 129.105V99.2537C399.661 88.9379 394.02 79.4479 384.958 74.5185L361.885 61.9668C353.495 57.4028 343.363 57.4028 334.974 61.9669Z" fill="url(#paint1_linear)"/>
<g filter="url(#filter0_f)">
<path d="M334.974 61.9669L311.9 74.5185C302.839 79.4479 297.198 88.9379 297.198 99.2536L297.198 129.105C297.198 139.42 302.839 148.91 311.9 153.84L334.974 166.391C343.363 170.955 353.495 170.955 361.885 166.391L384.958 153.84C394.02 148.91 399.661 139.42 399.661 129.105V99.2537C399.661 88.9379 394.02 79.4479 384.958 74.5185L361.885 61.9668C353.495 57.4028 343.363 57.4028 334.974 61.9669Z" stroke="url(#paint2_linear)" stroke-width="1.66262"/>
</g>
<g opacity="0.5">
<mask id="mask0" mask-type="alpha" maskUnits="userSpaceOnUse" x="301" y="63" width="95" height="103">
<path d="M335.955 66.4406L315.55 77.5309C306.925 82.2184 301.556 91.2482 301.556 101.064L301.556 127.487C301.556 137.303 306.925 146.332 315.55 151.02L335.955 162.11C343.931 166.445 353.56 166.445 361.536 162.11L381.941 151.02C390.566 146.332 395.936 137.303 395.936 127.487L395.936 101.064C395.936 91.2482 390.566 82.2184 381.941 77.5309L361.536 66.4406C353.56 62.1056 343.931 62.1056 335.955 66.4406Z" fill="#A6D3DE"/>
</mask>
<g mask="url(#mask0)">
<path d="M335.955 66.4406L315.55 77.5309C306.925 82.2184 301.556 91.2482 301.556 101.064L301.556 127.487C301.556 137.303 306.925 146.332 315.55 151.02L335.955 162.11C343.931 166.445 353.56 166.445 361.536 162.11L381.941 151.02C390.566 146.332 395.936 137.303 395.936 127.487L395.936 101.064C395.936 91.2482 390.566 82.2184 381.941 77.5309L361.536 66.4406C353.56 62.1056 343.931 62.1056 335.955 66.4406Z" fill="url(#paint3_radial)"/>
<path opacity="0.5" d="M340.856 171.225L338.981 57.3179H358.508L356.634 171.225H340.856Z" fill="url(#paint4_linear)"/>
<path opacity="0.5" d="M340.605 170.214L282.028 72.505L298.939 62.7415L354.269 162.325L340.605 170.214Z" fill="url(#paint5_linear)"/>
<path opacity="0.5" d="M338.978 162.325L394.308 62.7418L411.219 72.5052L352.642 170.214L338.978 162.325Z" fill="url(#paint6_linear)"/>
<rect x="301.555" y="107.762" width="94.38" height="61.2928" fill="url(#paint7_linear)"/>
<g filter="url(#filter1_i)">
<path d="M335.955 66.4406L315.55 77.5309C306.925 82.2184 301.556 91.2482 301.556 101.064L301.556 127.487C301.556 137.303 306.925 146.332 315.55 151.02L335.955 162.11C343.931 166.445 353.56 166.445 361.536 162.11L381.941 151.02C390.566 146.332 395.936 137.303 395.936 127.487L395.936 101.064C395.936 91.2482 390.566 82.2184 381.941 77.5309L361.536 66.4406C353.56 62.1056 343.931 62.1056 335.955 66.4406Z" fill="#6052B4" fill-opacity="0.01"/>
</g>
</g>
</g>
<path d="M293.705 107.347L281.758 113.846C272.662 118.794 267 128.32 267 138.675L267 154.778C267 165.133 272.662 174.658 281.758 179.607L293.705 186.106C302.127 190.687 312.296 190.687 320.718 186.106L332.665 179.607C341.761 174.658 347.423 165.133 347.423 154.778L347.423 138.675C347.423 128.32 341.761 118.794 332.665 113.846L320.718 107.347C312.296 102.766 302.127 102.766 293.705 107.347Z" fill="url(#paint8_linear)"/>
<path d="M293.709 114.396L287.816 117.602C278.754 122.531 273.113 132.021 273.113 142.337L273.113 150.952C273.113 161.268 278.754 170.758 287.816 175.687L293.709 178.893C302.099 183.457 312.23 183.457 320.62 178.893L326.513 175.687C335.575 170.758 341.215 161.268 341.215 150.952L341.215 142.337C341.215 132.021 335.575 122.531 326.513 117.602L320.62 114.396C312.23 109.832 302.099 109.832 293.709 114.396Z" fill="url(#paint9_linear)"/>
<g filter="url(#filter2_f)">
<path d="M293.709 114.396L287.816 117.602C278.754 122.531 273.113 132.021 273.113 142.337L273.113 150.952C273.113 161.268 278.754 170.758 287.816 175.687L293.709 178.893C302.099 183.457 312.23 183.457 320.62 178.893L326.513 175.687C335.575 170.758 341.215 161.268 341.215 150.952L341.215 142.337C341.215 132.021 335.575 122.531 326.513 117.602L320.62 114.396C312.23 109.832 302.099 109.832 293.709 114.396Z" stroke="url(#paint10_linear)" stroke-width="1.66262"/>
</g>
<g opacity="0.5">
<mask id="mask1" mask-type="alpha" maskUnits="userSpaceOnUse" x="276" y="113" width="63" height="67">
<path d="M294.584 117.246L290.004 119.736C281.379 124.423 276.01 133.453 276.01 143.269L276.01 150.148C276.01 159.964 281.379 168.994 290.004 173.682L294.584 176.171C302.56 180.506 312.189 180.506 320.165 176.171L324.745 173.682C333.37 168.994 338.74 159.964 338.74 150.148L338.74 143.269C338.74 133.453 333.37 124.423 324.745 119.736L320.165 117.246C312.189 112.911 302.56 112.911 294.584 117.246Z" fill="#A6D3DE"/>
</mask>
<g mask="url(#mask1)">
<path d="M294.584 117.246L290.004 119.736C281.379 124.423 276.01 133.453 276.01 143.269L276.01 150.148C276.01 159.964 281.379 168.994 290.004 173.682L294.584 176.171C302.56 180.506 312.189 180.506 320.165 176.171L324.745 173.682C333.37 168.994 338.74 159.964 338.74 150.148L338.74 143.269C338.74 133.453 333.37 124.423 324.745 119.736L320.165 117.246C312.189 112.911 302.56 112.911 294.584 117.246Z" fill="url(#paint11_radial)"/>
<path opacity="0.5" d="M302.131 184.56L300.885 108.852H313.864L312.618 184.56H302.131Z" fill="url(#paint12_linear)"/>
<path opacity="0.5" d="M301.964 183.888L263.031 118.946L274.271 112.457L311.046 178.645L301.964 183.888Z" fill="url(#paint13_linear)"/>
<path opacity="0.5" d="M300.883 178.645L337.658 112.457L348.898 118.946L309.965 183.888L300.883 178.645Z" fill="url(#paint14_linear)"/>
<rect x="276.009" y="142.38" width="62.7298" height="40.7383" fill="url(#paint15_linear)"/>
<g filter="url(#filter3_i)">
<path d="M294.584 117.246L290.004 119.736C281.379 124.423 276.01 133.453 276.01 143.269L276.01 150.148C276.01 159.964 281.379 168.994 290.004 173.682L294.584 176.171C302.56 180.506 312.189 180.506 320.165 176.171L324.745 173.682C333.37 168.994 338.74 159.964 338.74 150.148L338.74 143.269C338.74 133.453 333.37 124.423 324.745 119.736L320.165 117.246C312.189 112.911 302.56 112.911 294.584 117.246Z" fill="#6052B4" fill-opacity="0.01"/>
</g>
</g>
</g>
</g>
<rect x="43.5" y="242.5" width="344" height="9" stroke="url(#paint16_linear)" stroke-width="3"/>
<rect x="43.5" y="215.5" width="344" height="9" stroke="url(#paint17_linear)" stroke-width="3"/>
<g filter="url(#filter4_d)">
<path d="M52.6438 148.62H57.7085L68.3524 176.38H63.4459L60.9136 169.285H49.4784L46.9064 176.38H42L52.6438 148.62ZM59.41 165.253L56.4028 156.995L55.2949 153.777H55.0575L53.9496 156.995L50.9424 165.253H59.41Z" fill="url(#paint18_linear)"/>
<path d="M84.0909 177C81.3475 177 78.8415 176.367 76.573 175.1C74.3044 173.834 72.5238 172.089 71.2313 169.866C69.9387 167.643 69.2924 165.188 69.2924 162.5C69.2924 159.812 69.9387 157.357 71.2313 155.134C72.5238 152.911 74.3044 151.166 76.573 149.9C78.8415 148.633 81.3475 148 84.0909 148C86.2276 148 88.1664 148.388 89.9074 149.163C91.6748 149.939 93.2311 151.063 94.5765 152.536L91.411 155.521C90.435 154.384 89.3535 153.544 88.1664 153.001C86.9794 152.433 85.6209 152.148 84.0909 152.148C82.1916 152.148 80.4506 152.575 78.8679 153.428C77.3116 154.281 76.0718 155.496 75.1485 157.072C74.2253 158.623 73.7636 160.432 73.7636 162.5C73.7636 164.568 74.2253 166.39 75.1485 167.967C76.0718 169.517 77.3116 170.719 78.8679 171.572C80.4506 172.425 82.1916 172.852 84.0909 172.852C87.2564 172.852 89.947 171.559 92.1628 168.975L95.3678 171.999C93.9961 173.575 92.3475 174.803 90.4218 175.682C88.4962 176.561 86.3859 177 84.0909 177Z" fill="url(#paint19_linear)"/>
<path d="M107.596 148.62H112.661L123.305 176.38H118.398L115.866 169.285H104.431L101.859 176.38H96.9524L107.596 148.62ZM114.362 165.253L111.355 156.995L110.247 153.777H110.01L108.902 156.995L105.895 165.253H114.362Z" fill="url(#paint20_linear)"/>
<path d="M126.442 148.62H135.503C138.431 148.62 140.99 149.202 143.179 150.365C145.369 151.528 147.044 153.169 148.205 155.289C149.392 157.382 149.985 159.786 149.985 162.5C149.985 165.214 149.392 167.631 148.205 169.75C147.044 171.844 145.369 173.472 143.179 174.635C140.99 175.798 138.431 176.38 135.503 176.38H126.442V148.62ZM135.424 172.231C138.59 172.231 141.056 171.378 142.823 169.672C144.617 167.941 145.514 165.55 145.514 162.5C145.514 159.476 144.617 157.098 142.823 155.366C141.056 153.635 138.59 152.769 135.424 152.769H130.874V172.231H135.424Z" fill="url(#paint21_linear)"/>
<path d="M162.515 177C160.167 177 158.057 176.328 156.184 174.984C154.311 173.64 153.018 171.753 152.306 169.324L156.5 167.656C156.922 169.181 157.661 170.435 158.716 171.417C159.798 172.373 161.09 172.852 162.594 172.852C163.992 172.852 165.179 172.503 166.155 171.805C167.131 171.081 167.619 170.099 167.619 168.858C167.619 167.721 167.184 166.791 166.313 166.067C165.469 165.317 163.979 164.568 161.842 163.818L160.061 163.198C158.162 162.552 156.566 161.621 155.274 160.406C153.981 159.192 153.335 157.589 153.335 155.599C153.335 154.229 153.717 152.963 154.482 151.799C155.247 150.636 156.302 149.719 157.648 149.047C159.019 148.349 160.563 148 162.277 148C164.757 148 166.735 148.594 168.212 149.783C169.69 150.947 170.679 152.265 171.18 153.738L167.184 155.405C166.894 154.526 166.34 153.751 165.522 153.079C164.704 152.407 163.649 152.071 162.356 152.071C161.064 152.071 159.969 152.394 159.072 153.04C158.202 153.686 157.766 154.513 157.766 155.521C157.766 156.478 158.162 157.266 158.954 157.886C159.745 158.507 160.985 159.101 162.673 159.67L164.453 160.251C166.88 161.078 168.753 162.164 170.072 163.508C171.417 164.826 172.09 166.597 172.09 168.82C172.09 170.629 171.615 172.154 170.666 173.394C169.716 174.609 168.503 175.514 167.025 176.108C165.575 176.703 164.071 177 162.515 177Z" fill="url(#paint22_linear)"/>
<path d="M189.704 177C186.96 177 184.468 176.367 182.225 175.1C179.983 173.808 178.216 172.05 176.923 169.828C175.657 167.605 175.024 165.162 175.024 162.5C175.024 159.838 175.657 157.408 176.923 155.211C178.216 152.988 179.983 151.231 182.225 149.939C184.468 148.646 186.96 148 189.704 148C192.447 148 194.927 148.646 197.143 149.939C199.385 151.231 201.152 152.988 202.445 155.211C203.737 157.408 204.384 159.838 204.384 162.5C204.384 165.162 203.737 167.605 202.445 169.828C201.179 172.05 199.424 173.808 197.182 175.1C194.94 176.367 192.447 177 189.704 177ZM189.704 172.852C191.577 172.852 193.291 172.412 194.848 171.533C196.404 170.655 197.631 169.44 198.527 167.889C199.424 166.312 199.873 164.516 199.873 162.5C199.873 160.484 199.424 158.701 198.527 157.15C197.631 155.573 196.404 154.345 194.848 153.467C193.291 152.588 191.577 152.148 189.704 152.148C187.831 152.148 186.116 152.588 184.56 153.467C183.004 154.345 181.764 155.573 180.841 157.15C179.944 158.701 179.495 160.484 179.495 162.5C179.495 164.516 179.944 166.312 180.841 167.889C181.764 169.44 183.004 170.655 184.56 171.533C186.116 172.412 187.831 172.852 189.704 172.852Z" fill="url(#paint23_linear)"/>
<path d="M221.723 177C218.98 177 216.474 176.367 214.205 175.1C211.937 173.834 210.156 172.089 208.863 169.866C207.571 167.643 206.925 165.188 206.925 162.5C206.925 159.812 207.571 157.357 208.863 155.134C210.156 152.911 211.937 151.166 214.205 149.9C216.474 148.633 218.98 148 221.723 148C223.86 148 225.799 148.388 227.54 149.163C229.307 149.939 230.863 151.063 232.209 152.536L229.043 155.521C228.067 154.384 226.986 153.544 225.799 153.001C224.612 152.433 223.253 152.148 221.723 152.148C219.824 152.148 218.083 152.575 216.5 153.428C214.944 154.281 213.704 155.496 212.781 157.072C211.857 158.623 211.396 160.432 211.396 162.5C211.396 164.568 211.857 166.39 212.781 167.967C213.704 169.517 214.944 170.719 216.5 171.572C218.083 172.425 219.824 172.852 221.723 172.852C224.889 172.852 227.579 171.559 229.795 168.975L233 171.999C231.628 173.575 229.98 174.803 228.054 175.682C226.128 176.561 224.018 177 221.723 177Z" fill="url(#paint24_linear)"/>
</g>
<circle cx="307" cy="147" r="23.5" stroke="#9BBEFF" stroke-width="5"/>
<circle cx="307" cy="147" r="9.5" stroke="#9BBEFF" stroke-width="5"/>
<rect opacity="0.1" x="325.5" y="90.5" width="47" height="47" rx="2.5" stroke="#9BBEFF" stroke-width="5"/>
<rect opacity="0.1" x="345.5" y="90.5" width="27" height="27" rx="2.5" stroke="#9BBEFF" stroke-width="5"/>
<defs>
<filter id="filter0_f" x="295.867" y="57.2137" width="105.123" height="113.931" filterUnits="userSpaceOnUse" color-interpolation-filters="sRGB">
<feFlood flood-opacity="0" result="BackgroundImageFix"/>
<feBlend mode="normal" in="SourceGraphic" in2="BackgroundImageFix" result="shape"/>
<feGaussianBlur stdDeviation="0.249393" result="effect1_foregroundBlur"/>
</filter>
<filter id="filter1_i" x="301.556" y="63.1894" width="94.38" height="102.172" filterUnits="userSpaceOnUse" color-interpolation-filters="sRGB">
<feFlood flood-opacity="0" result="BackgroundImageFix"/>
<feBlend mode="normal" in="SourceGraphic" in2="BackgroundImageFix" result="shape"/>
<feColorMatrix in="SourceAlpha" type="matrix" values="0 0 0 0 0 0 0 0 0 0 0 0 0 0 0 0 0 0 127 0" result="hardAlpha"/>
<feOffset/>
<feGaussianBlur stdDeviation="11.1797"/>
<feComposite in2="hardAlpha" operator="arithmetic" k2="-1" k3="1"/>
<feColorMatrix type="matrix" values="0 0 0 0 0.297222 0 0 0 0 0.329917 0 0 0 0 0.445833 0 0 0 1 0"/>
<feBlend mode="normal" in2="shape" result="effect1_innerShadow"/>
</filter>
<filter id="filter2_f" x="271.783" y="109.643" width="70.7623" height="74.0028" filterUnits="userSpaceOnUse" color-interpolation-filters="sRGB">
<feFlood flood-opacity="0" result="BackgroundImageFix"/>
<feBlend mode="normal" in="SourceGraphic" in2="BackgroundImageFix" result="shape"/>
<feGaussianBlur stdDeviation="0.249393" result="effect1_foregroundBlur"/>
</filter>
<filter id="filter3_i" x="276.01" y="113.995" width="62.7298" height="65.427" filterUnits="userSpaceOnUse" color-interpolation-filters="sRGB">
<feFlood flood-opacity="0" result="BackgroundImageFix"/>
<feBlend mode="normal" in="SourceGraphic" in2="BackgroundImageFix" result="shape"/>
<feColorMatrix in="SourceAlpha" type="matrix" values="0 0 0 0 0 0 0 0 0 0 0 0 0 0 0 0 0 0 127 0" result="hardAlpha"/>
<feOffset/>
<feGaussianBlur stdDeviation="11.1797"/>
<feComposite in2="hardAlpha" operator="arithmetic" k2="-1" k3="1"/>
<feColorMatrix type="matrix" values="0 0 0 0 0.297222 0 0 0 0 0.329917 0 0 0 0 0.445833 0 0 0 1 0"/>
<feBlend mode="normal" in2="shape" result="effect1_innerShadow"/>
</filter>
<filter id="filter4_d" x="40.8362" y="147.169" width="194.325" height="32.3252" filterUnits="userSpaceOnUse" color-interpolation-filters="sRGB">
<feFlood flood-opacity="0" result="BackgroundImageFix"/>
<feColorMatrix in="SourceAlpha" type="matrix" values="0 0 0 0 0 0 0 0 0 0 0 0 0 0 0 0 0 0 127 0"/>
<feOffset dx="0.498787" dy="0.831312"/>
<feGaussianBlur stdDeviation="0.831312"/>
<feColorMatrix type="matrix" values="0 0 0 0 0.762124 0 0 0 0 0.761181 0 0 0 0 0.808333 0 0 0 0.8 0"/>
<feBlend mode="normal" in2="BackgroundImageFix" result="effect1_dropShadow"/>
<feBlend mode="normal" in="SourceGraphic" in2="effect1_dropShadow" result="shape"/>
</filter>
<linearGradient id="paint0_linear" x1="323.09" y1="60.94" x2="377.54" y2="169.114" gradientUnits="userSpaceOnUse">
<stop stop-color="#FAFAFA"/>
<stop offset="1" stop-color="#C2C4CD"/>
</linearGradient>
<linearGradient id="paint1_linear" x1="322.608" y1="69.8931" x2="369.556" y2="156.529" gradientUnits="userSpaceOnUse">
<stop stop-color="#CDCFD6"/>
<stop offset="1" stop-color="#EFEFF1"/>
</linearGradient>
<linearGradient id="paint2_linear" x1="327.69" y1="66.7471" x2="378.268" y2="157.739" gradientUnits="userSpaceOnUse">
<stop stop-color="#DDDFE2"/>
<stop offset="1" stop-color="white"/>
</linearGradient>
<radialGradient id="paint3_radial" cx="0" cy="0" r="1" gradientUnits="userSpaceOnUse" gradientTransform="translate(348.746 114.275) rotate(90) scale(54.7864 47.19)">
<stop stop-color="#F5F7FF"/>
<stop offset="1" stop-color="#B3B5C5"/>
</radialGradient>
<linearGradient id="paint4_linear" x1="348.745" y1="57.3179" x2="348.745" y2="171.225" gradientUnits="userSpaceOnUse">
<stop stop-color="white"/>
<stop offset="1" stop-color="#F2EDED" stop-opacity="0"/>
</linearGradient>
<linearGradient id="paint5_linear" x1="290.483" y1="67.6233" x2="347.437" y2="166.269" gradientUnits="userSpaceOnUse">
<stop stop-color="white"/>
<stop offset="1" stop-color="#F2EDED" stop-opacity="0"/>
</linearGradient>
<linearGradient id="paint6_linear" x1="402.763" y1="67.6235" x2="345.81" y2="166.27" gradientUnits="userSpaceOnUse">
<stop stop-color="white"/>
<stop offset="1" stop-color="#F2EDED" stop-opacity="0"/>
</linearGradient>
<linearGradient id="paint7_linear" x1="348.745" y1="134.341" x2="348.46" y2="165.258" gradientUnits="userSpaceOnUse">
<stop stop-color="white" stop-opacity="0"/>
<stop offset="1" stop-color="#D0DBFF"/>
</linearGradient>
<linearGradient id="paint8_linear" x1="290.323" y1="111.259" x2="326.513" y2="183.157" gradientUnits="userSpaceOnUse">
<stop stop-color="#FAFAFA"/>
<stop offset="1" stop-color="#C2C4CD"/>
</linearGradient>
<linearGradient id="paint9_linear" x1="290.002" y1="117.21" x2="321.206" y2="174.793" gradientUnits="userSpaceOnUse">
<stop stop-color="#CDCFD6"/>
<stop offset="1" stop-color="#EFEFF1"/>
</linearGradient>
<linearGradient id="paint10_linear" x1="293.38" y1="115.119" x2="326.997" y2="175.597" gradientUnits="userSpaceOnUse">
<stop stop-color="#DDDFE2"/>
<stop offset="1" stop-color="white"/>
</linearGradient>
<radialGradient id="paint11_radial" cx="0" cy="0" r="1" gradientUnits="userSpaceOnUse" gradientTransform="translate(307.375 146.709) rotate(90) scale(36.4139 31.3649)">
<stop stop-color="#F5F7FF"/>
<stop offset="1" stop-color="#B3B5C5"/>
</radialGradient>
<linearGradient id="paint12_linear" x1="307.375" y1="108.852" x2="307.375" y2="184.56" gradientUnits="userSpaceOnUse">
<stop stop-color="white"/>
<stop offset="1" stop-color="#F2EDED" stop-opacity="0"/>
</linearGradient>
<linearGradient id="paint13_linear" x1="268.651" y1="115.701" x2="306.505" y2="181.267" gradientUnits="userSpaceOnUse">
<stop stop-color="white"/>
<stop offset="1" stop-color="#F2EDED" stop-opacity="0"/>
</linearGradient>
<linearGradient id="paint14_linear" x1="343.278" y1="115.701" x2="305.424" y2="181.267" gradientUnits="userSpaceOnUse">
<stop stop-color="white"/>
<stop offset="1" stop-color="#F2EDED" stop-opacity="0"/>
</linearGradient>
<linearGradient id="paint15_linear" x1="307.374" y1="160.045" x2="307.185" y2="180.594" gradientUnits="userSpaceOnUse">
<stop stop-color="white" stop-opacity="0"/>
<stop offset="1" stop-color="#D0DBFF"/>
</linearGradient>
<linearGradient id="paint16_linear" x1="42" y1="247" x2="389" y2="253" gradientUnits="userSpaceOnUse">
<stop stop-color="white"/>
<stop offset="0.994744" stop-color="white" stop-opacity="0"/>
</linearGradient>
<linearGradient id="paint17_linear" x1="42" y1="220" x2="389" y2="226" gradientUnits="userSpaceOnUse">
<stop stop-color="white"/>
<stop offset="0.994744" stop-color="white" stop-opacity="0"/>
</linearGradient>
<linearGradient id="paint18_linear" x1="122.373" y1="140.731" x2="150.934" y2="197.9" gradientUnits="userSpaceOnUse">
<stop offset="0.168737" stop-color="#F4F3F8"/>
<stop offset="0.360439" stop-color="white"/>
<stop offset="0.451944" stop-color="white"/>
<stop offset="0.627859" stop-color="#E7E6EE"/>
<stop offset="0.80404" stop-color="#F3F3F3"/>
</linearGradient>
<linearGradient id="paint19_linear" x1="122.373" y1="140.731" x2="150.934" y2="197.9" gradientUnits="userSpaceOnUse">
<stop offset="0.168737" stop-color="#F4F3F8"/>
<stop offset="0.360439" stop-color="white"/>
<stop offset="0.451944" stop-color="white"/>
<stop offset="0.627859" stop-color="#E7E6EE"/>
<stop offset="0.80404" stop-color="#F3F3F3"/>
</linearGradient>
<linearGradient id="paint20_linear" x1="122.373" y1="140.731" x2="150.934" y2="197.9" gradientUnits="userSpaceOnUse">
<stop offset="0.168737" stop-color="#F4F3F8"/>
<stop offset="0.360439" stop-color="white"/>
<stop offset="0.451944" stop-color="white"/>
<stop offset="0.627859" stop-color="#E7E6EE"/>
<stop offset="0.80404" stop-color="#F3F3F3"/>
</linearGradient>
<linearGradient id="paint21_linear" x1="122.373" y1="140.731" x2="150.934" y2="197.9" gradientUnits="userSpaceOnUse">
<stop offset="0.168737" stop-color="#F4F3F8"/>
<stop offset="0.360439" stop-color="white"/>
<stop offset="0.451944" stop-color="white"/>
<stop offset="0.627859" stop-color="#E7E6EE"/>
<stop offset="0.80404" stop-color="#F3F3F3"/>
</linearGradient>
<linearGradient id="paint22_linear" x1="122.373" y1="140.731" x2="150.934" y2="197.9" gradientUnits="userSpaceOnUse">
<stop offset="0.168737" stop-color="#F4F3F8"/>
<stop offset="0.360439" stop-color="white"/>
<stop offset="0.451944" stop-color="white"/>
<stop offset="0.627859" stop-color="#E7E6EE"/>
<stop offset="0.80404" stop-color="#F3F3F3"/>
</linearGradient>
<linearGradient id="paint23_linear" x1="122.373" y1="140.731" x2="150.934" y2="197.9" gradientUnits="userSpaceOnUse">
<stop offset="0.168737" stop-color="#F4F3F8"/>
<stop offset="0.360439" stop-color="white"/>
<stop offset="0.451944" stop-color="white"/>
<stop offset="0.627859" stop-color="#E7E6EE"/>
<stop offset="0.80404" stop-color="#F3F3F3"/>
</linearGradient>
<linearGradient id="paint24_linear" x1="122.373" y1="140.731" x2="150.934" y2="197.9" gradientUnits="userSpaceOnUse">
<stop offset="0.168737" stop-color="#F4F3F8"/>
<stop offset="0.360439" stop-color="white"/>
<stop offset="0.451944" stop-color="white"/>
<stop offset="0.627859" stop-color="#E7E6EE"/>
<stop offset="0.80404" stop-color="#F3F3F3"/>
</linearGradient>
</defs>
</svg>
