<svg width="457" height="402" viewBox="0 0 457 402" fill="none" xmlns="http://www.w3.org/2000/svg">
<path d="M233.132 370.272L372.326 289.902C375.518 288.078 377.456 284.658 377.456 281.01V120.27C377.456 116.622 375.518 113.202 372.326 111.378L233.132 31.0083C229.94 29.1843 226.064 29.1843 222.872 31.0083L83.6779 111.378C80.4859 113.202 78.5479 116.622 78.5479 120.27V281.01C78.5479 284.658 80.4859 288.078 83.6779 289.902L222.872 370.272C226.064 372.096 229.94 372.096 233.132 370.272Z" fill="#979EDD"/>
<path d="M73.8736 32.7183L58.9396 25.9923L44.0056 32.7183C42.7516 33.2883 42.0676 34.4283 42.0676 35.7963V50.0463C42.0676 51.4143 42.8656 52.5543 44.0056 53.1243L58.9396 59.8503L73.8736 53.1243C75.1276 52.5543 75.8116 51.4143 75.8116 50.0463V35.7963C75.8116 34.4283 75.0136 33.1743 73.8736 32.7183ZM61.6756 45.6003C59.0536 48.2223 55.0636 49.2483 52.2136 49.5903C52.5556 46.7403 53.5816 42.7503 56.2036 40.1283C58.8256 37.5063 62.8156 36.4803 65.6656 36.1383C65.3236 38.9883 64.2976 42.9783 61.6756 45.6003ZM370.388 262.2L372.44 263.112L380.648 243.276L378.596 242.364L370.388 262.2ZM423.74 139.08L421.688 138.168L413.48 158.004L415.532 158.916L423.74 139.08ZM242.594 116.964L243.164 114L240.428 112.746L240.086 109.668L237.008 109.326L235.754 106.59L232.79 107.16L230.738 104.88L228.116 106.362L225.494 104.88L223.442 107.16L220.478 106.59L219.224 109.326L216.146 109.668L215.804 112.746L213.068 114L213.638 116.964L211.358 119.016L212.84 121.638L211.358 124.26L213.638 126.312L213.068 129.276L215.804 130.53L216.146 133.608L219.224 133.95L220.478 136.686L223.442 136.116L225.494 138.396L228.116 136.914L230.738 138.396L232.79 136.116L235.754 136.686L237.008 133.95L240.086 133.608L240.428 130.53L243.164 129.276L242.594 126.312L244.874 124.26L243.392 121.638L244.874 119.016L242.594 116.964ZM234.044 125.856C233.588 125.742 233.132 125.628 232.562 125.628C230.852 125.628 229.256 126.426 228.002 127.794C226.748 126.426 225.152 125.628 223.442 125.628C222.986 125.628 222.416 125.742 221.96 125.856C221.96 125.514 221.96 125.286 221.96 124.944C221.96 123.576 222.302 122.208 222.872 121.068L227.774 122.55C228.002 122.664 228.23 122.664 228.458 122.55L233.36 121.068C233.93 122.208 234.272 123.576 234.272 124.944C234.044 125.286 234.044 125.628 234.044 125.856ZM228.002 121.296L219.11 118.674L228.002 116.052L236.894 118.674L228.002 121.296ZM380.648 158.004L372.44 138.168L370.388 139.08L378.596 158.916L380.648 158.004ZM395.924 267.672H398.204V246.24H395.924V267.672ZM398.204 133.608H395.924V155.04H398.204V133.608ZM413.48 243.276L421.688 263.112L423.74 262.2L415.532 242.364L413.48 243.276ZM393.644 209.076H400.37C400.37 207.252 398.888 205.656 396.95 205.656C395.012 205.656 393.644 207.252 393.644 209.076ZM72.5056 262.656H45.3736C43.5496 262.656 41.9536 264.138 41.9536 266.076V279.642C41.9536 288.99 49.4776 296.514 58.8256 296.514C68.1736 296.514 75.6976 288.99 75.6976 279.642V266.076C75.8116 264.138 74.3296 262.656 72.5056 262.656ZM58.9396 269.838C61.1056 269.838 62.8156 271.548 62.8156 273.714C62.8156 275.88 61.1056 277.59 58.9396 277.59C56.7736 277.59 55.0636 275.88 55.0636 273.714C55.0636 271.548 56.7736 269.838 58.9396 269.838ZM66.5776 285.228H51.3016V283.29C51.3016 280.782 56.4316 279.414 58.9396 279.414C61.4476 279.414 66.5776 280.668 66.5776 283.29V285.228ZM58.9396 341.544C49.5916 341.544 42.0676 349.068 42.0676 358.416C42.0676 367.764 49.5916 375.288 58.9396 375.288C68.2876 375.288 75.8116 367.764 75.8116 358.416C75.8116 349.068 68.2876 341.544 58.9396 341.544ZM63.7276 365.826L58.9396 362.292L54.1516 365.826L55.9756 360.126L51.1876 356.592H57.1156L58.9396 350.892L60.7636 356.592H66.6916L61.9036 360.126L63.7276 365.826ZM242.936 269.382L228.002 262.656L213.068 269.382C211.814 269.952 211.13 271.092 211.13 272.46V286.71C211.13 288.078 211.928 289.218 213.068 289.788L228.002 296.4L242.936 289.674C244.19 289.104 244.874 287.964 244.874 286.596V272.46C244.874 271.092 244.076 269.952 242.936 269.382ZM227.888 284.088L226.634 285.342L225.266 284.202L220.82 280.554L223.328 277.476L226.406 279.984L232.448 273.714L235.298 276.45L227.888 284.088ZM419.636 171.342H374.606C370.844 171.342 367.88 174.42 367.88 178.068V199.5H313.73V133.038C313.73 126.198 308.144 120.612 301.304 120.612H257.3V99.1803C257.3 95.4183 254.222 92.4543 250.574 92.4543H205.544C201.782 92.4543 198.818 95.5323 198.818 99.1803V144.21C198.818 147.972 201.896 150.936 205.544 150.936H250.574C254.336 150.936 257.3 147.858 257.3 144.21V122.778H301.304C306.89 122.778 311.45 127.338 311.45 132.924V199.5H257.3V178.068C257.3 174.306 254.222 171.342 250.574 171.342H205.544C201.782 171.342 198.818 174.42 198.818 178.068V199.5H144.668V54.1503C144.668 47.3103 139.082 41.7243 132.242 41.7243H88.2376V20.2923C88.2376 16.5303 85.1596 13.5663 81.5116 13.5663H36.3676C32.6056 13.5663 29.6416 16.6443 29.6416 20.2923V65.3223C29.6416 69.0843 32.7196 72.0483 36.3676 72.0483H81.3976C85.1596 72.0483 88.1236 68.9703 88.1236 65.3223V44.0043H132.242C137.828 44.0043 142.388 48.5643 142.388 54.1503V120.612H88.2376V99.1803C88.2376 95.4183 85.1596 92.4543 81.5116 92.4543H36.3676C32.6056 92.4543 29.6416 95.5323 29.6416 99.1803V144.21C29.6416 147.972 32.7196 150.936 36.3676 150.936H81.3976C85.1596 150.936 88.1236 147.858 88.1236 144.21V122.778H142.274V199.5H88.2376V178.068C88.2376 174.306 85.1596 171.342 81.5116 171.342H36.3676C32.6056 171.342 29.6416 174.42 29.6416 178.068V223.098C29.6416 226.86 32.7196 229.824 36.3676 229.824H81.3976C85.1596 229.824 88.1236 226.746 88.1236 223.098V201.78H198.59V223.212C198.59 226.974 201.668 229.938 205.316 229.938H250.346C254.108 229.938 257.072 226.86 257.072 223.212V201.78H311.222V268.242C311.222 273.828 306.662 278.388 301.076 278.388H257.072V256.956C257.072 253.194 253.994 250.23 250.346 250.23H205.316C201.554 250.23 198.59 253.308 198.59 256.956V278.388H88.2376V256.956C88.2376 253.194 85.1596 250.23 81.5116 250.23H36.3676C32.6056 250.23 29.6416 253.308 29.6416 256.956V302.1C29.6416 305.862 32.7196 308.826 36.3676 308.826H81.3976C85.1596 308.826 88.1236 305.748 88.1236 302.1V280.668H142.274V347.13C142.274 352.716 137.714 357.276 132.128 357.276H88.2376V335.844C88.2376 332.082 85.1596 329.118 81.5116 329.118H36.3676C32.6056 329.118 29.6416 332.196 29.6416 335.844V380.874C29.6416 384.636 32.7196 387.6 36.3676 387.6H81.3976C85.1596 387.6 88.1236 384.522 88.1236 380.874V359.442H132.242C139.082 359.442 144.668 353.856 144.668 347.016V280.554H198.818V302.1C198.818 305.862 201.896 308.826 205.544 308.826H250.574C254.336 308.826 257.3 305.748 257.3 302.1V280.668H301.304C308.144 280.668 313.73 275.082 313.73 268.242V201.78H367.88V223.212C367.88 226.974 370.958 229.938 374.606 229.938H419.636C423.398 229.938 426.362 226.86 426.362 223.212V178.182C426.362 174.42 423.284 171.342 419.636 171.342ZM255.02 144.324C255.02 146.832 252.968 148.884 250.46 148.884H205.43C202.922 148.884 200.87 146.832 200.87 144.324V99.1803C200.87 96.6723 202.922 94.6203 205.43 94.6203H250.46C252.968 94.6203 255.02 96.6723 255.02 99.1803V144.324ZM85.9576 65.4363C85.9576 67.9443 83.9056 69.9963 81.3976 69.9963H36.3676C33.8596 69.9963 31.8076 67.9443 31.8076 65.4363V20.2923C31.8076 17.7843 33.8596 15.7323 36.3676 15.7323H81.3976C83.9056 15.7323 85.9576 17.7843 85.9576 20.2923V65.4363ZM85.9576 144.324C85.9576 146.832 83.9056 148.884 81.3976 148.884H36.3676C33.8596 148.884 31.8076 146.832 31.8076 144.324V99.1803C31.8076 96.6723 33.8596 94.6203 36.3676 94.6203H81.3976C83.9056 94.6203 85.9576 96.6723 85.9576 99.1803V144.324ZM85.9576 223.212C85.9576 225.72 83.9056 227.772 81.3976 227.772H36.3676C33.8596 227.772 31.8076 225.72 31.8076 223.212V178.182C31.8076 175.674 33.8596 173.622 36.3676 173.622H81.3976C83.9056 173.622 85.9576 175.674 85.9576 178.182V223.212ZM255.02 223.212C255.02 225.72 252.968 227.772 250.46 227.772H205.43C202.922 227.772 200.87 225.72 200.87 223.212V178.182C200.87 175.674 202.922 173.622 205.43 173.622H250.46C252.968 173.622 255.02 175.674 255.02 178.182V223.212ZM85.9576 302.1C85.9576 304.608 83.9056 306.66 81.3976 306.66H36.3676C33.8596 306.66 31.8076 304.608 31.8076 302.1V257.07C31.8076 254.562 33.8596 252.51 36.3676 252.51H81.3976C83.9056 252.51 85.9576 254.562 85.9576 257.07V302.1ZM85.9576 380.988C85.9576 383.496 83.9056 385.548 81.3976 385.548H36.3676C33.8596 385.548 31.8076 383.496 31.8076 380.988V335.958C31.8076 333.45 33.8596 331.398 36.3676 331.398H81.3976C83.9056 331.398 85.9576 333.45 85.9576 335.958V380.988ZM255.02 302.1C255.02 304.608 252.968 306.66 250.46 306.66H205.43C202.922 306.66 200.87 304.608 200.87 302.1V257.07C200.87 254.562 202.922 252.51 205.43 252.51H250.46C252.968 252.51 255.02 254.562 255.02 257.07V302.1ZM413.936 200.64C413.936 209.988 406.412 217.512 397.064 217.512C387.716 217.512 380.192 209.988 380.192 200.64V187.074C380.192 185.25 381.674 183.654 383.612 183.654H410.63C412.454 183.654 414.05 185.136 414.05 187.074V200.64H413.936ZM403.79 192.204H390.224C388.4 192.204 386.804 193.686 386.804 195.624C386.804 197.448 388.286 199.044 390.224 199.044C390.224 202.806 393.302 205.77 396.95 205.77C400.256 205.77 402.992 203.49 403.562 200.412C403.676 199.956 403.676 199.5 403.676 199.044C405.5 199.044 407.096 197.562 407.096 195.624C407.21 193.686 405.728 192.204 403.79 192.204ZM390.338 197.22C389.426 197.22 388.628 196.422 388.628 195.51C388.628 194.598 389.426 193.8 390.338 193.8V197.22ZM405.386 196.194C405.158 196.65 404.702 197.106 404.132 197.22C404.018 197.22 403.904 197.22 403.79 197.22V193.8C403.904 193.8 404.018 193.8 404.132 193.8C404.702 193.914 405.158 194.256 405.386 194.826C405.5 195.054 405.5 195.282 405.5 195.51C405.5 195.852 405.5 196.08 405.386 196.194ZM61.3336 203.718H63.8416V197.676H61.4476V203.718H61.3336ZM57.6856 203.718H60.0796V197.676H57.6856V203.718ZM54.0376 203.718H56.4316V197.676H54.0376V203.718ZM73.6456 116.964L74.2156 114L71.4796 112.746L71.1376 109.668L68.0596 109.326L66.8056 106.59L63.8416 107.16L61.7896 104.88L59.1676 106.362L56.5456 104.88L54.4936 107.16L51.5296 106.59L50.2756 109.326L47.1976 109.668L46.8556 112.746L44.1196 114L44.6896 116.964L42.4096 119.016L43.8916 121.638L42.4096 124.26L44.6896 126.312L44.1196 129.276L46.8556 130.53L47.1976 133.608L50.2756 133.95L51.5296 136.686L54.4936 136.116L56.5456 138.396L59.1676 136.914L61.7896 138.396L63.8416 136.116L66.8056 136.686L68.0596 133.95L71.1376 133.608L71.4796 130.53L74.2156 129.276L73.6456 126.312L75.9256 124.26L74.4436 121.638L75.9256 119.016L73.6456 116.964ZM58.9396 128.592C55.1776 128.592 52.0996 125.514 52.0996 121.752C52.0996 117.99 55.1776 114.912 58.9396 114.912C62.7016 114.912 65.7796 117.99 65.7796 121.752C65.7796 125.514 62.7016 128.592 58.9396 128.592ZM58.9396 119.13C57.4576 119.13 56.3176 120.27 56.3176 121.752C56.3176 123.234 57.4576 124.374 58.9396 124.374C60.4216 124.374 61.5616 123.234 61.5616 121.752C61.5616 120.27 60.4216 119.13 58.9396 119.13ZM73.6456 195.852L74.2156 192.888L71.4796 191.634L71.1376 188.556L68.0596 188.214L66.8056 185.478L63.8416 186.048L61.7896 183.768L59.1676 185.25L56.5456 183.768L54.4936 186.048L51.5296 185.478L50.2756 188.214L47.1976 188.556L46.8556 191.634L44.1196 192.888L44.6896 195.852L42.4096 197.904L43.8916 200.526L42.4096 203.148L44.6896 205.2L44.1196 208.164L46.8556 209.418L47.1976 212.496L50.2756 212.838L51.5296 215.574L54.4936 215.004L56.5456 217.284L59.1676 215.802L61.7896 217.284L63.8416 215.004L66.8056 215.574L68.0596 212.838L71.1376 212.496L71.4796 209.418L74.2156 208.164L73.6456 205.2L75.9256 203.148L74.4436 200.526L75.9256 197.904L73.6456 195.852ZM51.6436 203.718H52.8976V197.676H51.6436V196.422L58.9396 192.774L66.2356 196.422V197.676H64.9816V203.718H66.2356V204.972H51.6436V203.718ZM67.4896 207.366H50.3896V206.112H67.3756V207.366H67.4896ZM228.002 183.768C218.654 183.768 211.13 191.292 211.13 200.64C211.13 209.988 218.654 217.512 228.002 217.512C237.35 217.512 244.874 209.988 244.874 200.64C244.874 191.292 237.35 183.768 228.002 183.768ZM224.012 202.92L224.924 206.796C224.924 207.024 224.81 207.138 224.696 207.138H223.556C223.328 207.138 223.214 207.024 223.1 206.796L220.136 194.484C220.136 194.256 220.25 194.142 220.364 194.142H221.504C221.732 194.142 221.846 194.256 221.96 194.484L222.188 195.168C226.634 196.764 229.256 192.432 234.044 194.826C234.728 197.448 235.298 199.956 235.982 202.578C231.194 200.298 228.572 204.516 224.012 202.92Z" fill="#282C4C"/>
</svg>
